%TF.GenerationSoftware,KiCad,Pcbnew,(6.0.0-0)*%
%TF.CreationDate,2022-09-21T21:39:14-04:00*%
%TF.ProjectId,PEC_Prognostic_Board,5045435f-5072-46f6-976e-6f737469635f,rev?*%
%TF.SameCoordinates,Original*%
%TF.FileFunction,Soldermask,Bot*%
%TF.FilePolarity,Negative*%
%FSLAX46Y46*%
G04 Gerber Fmt 4.6, Leading zero omitted, Abs format (unit mm)*
G04 Created by KiCad (PCBNEW (6.0.0-0)) date 2022-09-21 21:39:14*
%MOMM*%
%LPD*%
G01*
G04 APERTURE LIST*
%ADD10C,3.800000*%
%ADD11C,2.600000*%
%ADD12O,1.700000X1.700000*%
%ADD13R,1.700000X1.700000*%
%ADD14C,1.600000*%
%ADD15C,3.301600*%
%ADD16C,1.879600*%
%ADD17C,2.286000*%
%ADD18C,1.778000*%
G04 APERTURE END LIST*
D10*
%TO.C,REF\u002A\u002A*%
X74000000Y-44500000D03*
D11*
X74000000Y-44500000D03*
%TD*%
D10*
%TO.C,REF\u002A\u002A*%
X215500000Y-44000000D03*
D11*
X215500000Y-44000000D03*
%TD*%
D10*
%TO.C,REF\u002A\u002A*%
X216000000Y-130500000D03*
D11*
X216000000Y-130500000D03*
%TD*%
D10*
%TO.C,REF\u002A\u002A*%
X74000000Y-130500000D03*
D11*
X74000000Y-130500000D03*
%TD*%
D12*
%TO.C,U9*%
X189811267Y-58165647D03*
X189811267Y-55625647D03*
D13*
X189811267Y-53085647D03*
%TD*%
D14*
%TO.C,R1*%
X198000000Y-127000000D03*
X198000000Y-121920000D03*
%TD*%
D15*
%TO.C,U1*%
X77463000Y-97533000D03*
X97783000Y-97533000D03*
X97783000Y-110233000D03*
X77463000Y-110233000D03*
D16*
X92703000Y-110233000D03*
X90163000Y-110233000D03*
X87623000Y-110233000D03*
X85083000Y-110233000D03*
X82543000Y-110233000D03*
%TD*%
D12*
%TO.C,TH7*%
X211000000Y-93040000D03*
X211000000Y-90500000D03*
D13*
X211000000Y-87960000D03*
%TD*%
D12*
%TO.C,TH5*%
X211000000Y-115985000D03*
X211000000Y-113445000D03*
D13*
X211000000Y-110905000D03*
%TD*%
D15*
%TO.C,U4*%
X153963000Y-124428000D03*
X133643000Y-109188000D03*
X153963000Y-109188000D03*
X133643000Y-124428000D03*
D16*
X150153000Y-124428000D03*
X147613000Y-124428000D03*
X145073000Y-124428000D03*
X142533000Y-124428000D03*
D17*
X145503000Y-110458000D03*
D16*
X139993000Y-124428000D03*
D17*
X142003000Y-110458000D03*
D16*
X137453000Y-124428000D03*
%TD*%
D12*
%TO.C,TH6*%
X204500000Y-93055000D03*
X204500000Y-90515000D03*
D13*
X204500000Y-87975000D03*
%TD*%
D15*
%TO.C,U7*%
X182737000Y-44572000D03*
X162417000Y-59812000D03*
X182737000Y-59812000D03*
X162417000Y-44572000D03*
D16*
X166227000Y-44572000D03*
X168767000Y-44572000D03*
X171307000Y-44572000D03*
X173847000Y-44572000D03*
X176387000Y-44572000D03*
D17*
X170877000Y-58542000D03*
X174377000Y-58542000D03*
D16*
X178927000Y-44572000D03*
%TD*%
D14*
%TO.C,R2*%
X192000000Y-104025000D03*
X192000000Y-98945000D03*
%TD*%
D12*
%TO.C,U12*%
X74311267Y-88268923D03*
X74311267Y-85728923D03*
D13*
X74311267Y-83188923D03*
%TD*%
D14*
%TO.C,R0*%
X192000000Y-127045000D03*
X192000000Y-121965000D03*
%TD*%
%TO.C,R7*%
X211000000Y-104045000D03*
X211000000Y-98965000D03*
%TD*%
D15*
%TO.C,U8*%
X106263000Y-109188000D03*
X126583000Y-109188000D03*
X126583000Y-124428000D03*
X106263000Y-124428000D03*
D16*
X122773000Y-124428000D03*
X120233000Y-124428000D03*
X117693000Y-124428000D03*
X115153000Y-124428000D03*
X112613000Y-124428000D03*
D17*
X118123000Y-110458000D03*
D16*
X110073000Y-124428000D03*
D17*
X114623000Y-110458000D03*
%TD*%
D12*
%TO.C,U11*%
X74311267Y-73268923D03*
X74311267Y-70728923D03*
D13*
X74311267Y-68188923D03*
%TD*%
D14*
%TO.C,R3*%
X198500000Y-104025000D03*
X198500000Y-98945000D03*
%TD*%
D12*
%TO.C,TH0*%
X192000000Y-116020000D03*
X192000000Y-113480000D03*
D13*
X192000000Y-110940000D03*
%TD*%
D12*
%TO.C,TH4*%
X204500000Y-115540000D03*
X204500000Y-113000000D03*
D13*
X204500000Y-110460000D03*
%TD*%
D12*
%TO.C,U10*%
X74444250Y-58165647D03*
X74444250Y-55625647D03*
D13*
X74444250Y-53085647D03*
%TD*%
D15*
%TO.C,U6*%
X161263000Y-109188000D03*
X161263000Y-124428000D03*
X181583000Y-109188000D03*
X181583000Y-124428000D03*
D16*
X177773000Y-124428000D03*
X175233000Y-124428000D03*
X172693000Y-124428000D03*
X170153000Y-124428000D03*
X167613000Y-124428000D03*
D17*
X173123000Y-110458000D03*
D16*
X165073000Y-124428000D03*
D17*
X169623000Y-110458000D03*
%TD*%
D12*
%TO.C,TH3*%
X198500000Y-92580000D03*
X198500000Y-90040000D03*
D13*
X198500000Y-87500000D03*
%TD*%
D12*
%TO.C,J1*%
X98280000Y-118500000D03*
X98280000Y-121040000D03*
X95740000Y-118500000D03*
X95740000Y-121040000D03*
X93200000Y-118500000D03*
X93200000Y-121040000D03*
X90660000Y-118500000D03*
X90660000Y-121040000D03*
X88120000Y-118500000D03*
X88120000Y-121040000D03*
X85580000Y-118500000D03*
X85580000Y-121040000D03*
X83040000Y-118500000D03*
X83040000Y-121040000D03*
X80500000Y-118500000D03*
X80500000Y-121040000D03*
X77960000Y-118500000D03*
X77960000Y-121040000D03*
X75420000Y-118500000D03*
D13*
X75420000Y-121040000D03*
%TD*%
D12*
%TO.C,TH1*%
X198000000Y-115555000D03*
X198000000Y-113015000D03*
D13*
X198000000Y-110475000D03*
%TD*%
D15*
%TO.C,U5*%
X155237000Y-44572000D03*
X155237000Y-59812000D03*
X134917000Y-44572000D03*
X134917000Y-59812000D03*
D16*
X138727000Y-44572000D03*
X141267000Y-44572000D03*
X143807000Y-44572000D03*
X146347000Y-44572000D03*
D17*
X143377000Y-58542000D03*
D16*
X148887000Y-44572000D03*
X151427000Y-44572000D03*
D17*
X146877000Y-58542000D03*
%TD*%
D15*
%TO.C,U2*%
X191763000Y-67288000D03*
X212083000Y-67288000D03*
X212083000Y-79988000D03*
X191763000Y-79988000D03*
D16*
X208273000Y-79988000D03*
D18*
X208273000Y-67288000D03*
X205733000Y-67288000D03*
D16*
X205733000Y-79988000D03*
D18*
X203193000Y-67288000D03*
D16*
X203193000Y-79988000D03*
X200653000Y-79988000D03*
D18*
X200653000Y-67288000D03*
X198113000Y-67288000D03*
D16*
X198113000Y-79988000D03*
X195573000Y-79988000D03*
D18*
X195573000Y-67288000D03*
%TD*%
D12*
%TO.C,TH2*%
X192000000Y-92580000D03*
X192000000Y-90040000D03*
D13*
X192000000Y-87500000D03*
%TD*%
D14*
%TO.C,R5*%
X211000000Y-127030000D03*
X211000000Y-121950000D03*
%TD*%
D15*
%TO.C,U3*%
X107417000Y-44572000D03*
X107417000Y-59812000D03*
X127737000Y-59812000D03*
X127737000Y-44572000D03*
D16*
X111227000Y-44572000D03*
X113767000Y-44572000D03*
X116307000Y-44572000D03*
X118847000Y-44572000D03*
X121387000Y-44572000D03*
D17*
X115877000Y-58542000D03*
D16*
X123927000Y-44572000D03*
D17*
X119377000Y-58542000D03*
%TD*%
D14*
%TO.C,R4*%
X204500000Y-126985000D03*
X204500000Y-121905000D03*
%TD*%
%TO.C,R6*%
X204500000Y-104045000D03*
X204500000Y-98965000D03*
%TD*%
M02*
