M48
; DRILL file {KiCad (6.0.0-0)} date Wednesday, 21 September 2022 at 21:39:18
; FORMAT={-:-/ absolute / inch / decimal}
; #@! TF.CreationDate,2022-09-21T21:39:18-04:00
; #@! TF.GenerationSoftware,Kicad,Pcbnew,(6.0.0-0)
; #@! TF.FileFunction,MixedPlating,1,4
FMAT,2
INCH
; #@! TA.AperFunction,Plated,PTH,ComponentDrill
T1C0.0315
; #@! TA.AperFunction,Plated,PTH,ComponentDrill
T2C0.0394
; #@! TA.AperFunction,Plated,PTH,ComponentDrill
T3C0.0866
; #@! TA.AperFunction,Plated,PTH,ComponentDrill
T4C0.0984
%
G90
G05
T1
X7.5591Y-3.8955
X7.5591Y-4.0955
X7.5591Y-4.8018
X7.5591Y-5.0018
X7.7953Y-4.8
X7.7953Y-5.0
X7.815Y-3.8955
X7.815Y-4.0955
X8.0512Y-3.8963
X8.0512Y-4.0963
X8.0512Y-4.7994
X8.0512Y-4.9994
X8.3071Y-3.8963
X8.3071Y-4.0963
X8.3071Y-4.8012
X8.3071Y-5.0012
T2
X2.9256Y-2.6846
X2.9256Y-2.7846
X2.9256Y-2.8846
X2.9256Y-3.2752
X2.9256Y-3.3752
X2.9256Y-3.4752
X2.9309Y-2.09
X2.9309Y-2.19
X2.9309Y-2.29
X2.9693Y-4.6654
X2.9693Y-4.7654
X3.0693Y-4.6654
X3.0693Y-4.7654
X3.1693Y-4.6654
X3.1693Y-4.7654
X3.2497Y-4.3399
X3.2693Y-4.6654
X3.2693Y-4.7654
X3.3497Y-4.3399
X3.3693Y-4.6654
X3.3693Y-4.7654
X3.4497Y-4.3399
X3.4693Y-4.6654
X3.4693Y-4.7654
X3.5497Y-4.3399
X3.5693Y-4.6654
X3.5693Y-4.7654
X3.6497Y-4.3399
X3.6693Y-4.6654
X3.6693Y-4.7654
X3.7693Y-4.6654
X3.7693Y-4.7654
X3.8693Y-4.6654
X3.8693Y-4.7654
X4.3336Y-4.8987
X4.379Y-1.7548
X4.4336Y-4.8987
X4.479Y-1.7548
X4.5127Y-4.3487
X4.5336Y-4.8987
X4.5621Y-2.3048
X4.579Y-1.7548
X4.6336Y-4.8987
X4.6505Y-4.3487
X4.679Y-1.7548
X4.6999Y-2.3048
X4.7336Y-4.8987
X4.779Y-1.7548
X4.8336Y-4.8987
X4.879Y-1.7548
X5.4115Y-4.8987
X5.4617Y-1.7548
X5.5115Y-4.8987
X5.5617Y-1.7548
X5.5907Y-4.3487
X5.6115Y-4.8987
X5.6448Y-2.3048
X5.6617Y-1.7548
X5.7115Y-4.8987
X5.7285Y-4.3487
X5.7617Y-1.7548
X5.7826Y-2.3048
X5.8115Y-4.8987
X5.8617Y-1.7548
X5.9115Y-4.8987
X5.9617Y-1.7548
X6.4989Y-4.8987
X6.5444Y-1.7548
X6.5989Y-4.8987
X6.6444Y-1.7548
X6.6781Y-4.3487
X6.6989Y-4.8987
X6.7274Y-2.3048
X6.7444Y-1.7548
X6.7989Y-4.8987
X6.8159Y-4.3487
X6.8444Y-1.7548
X6.8652Y-2.3048
X6.8989Y-4.8987
X6.9444Y-1.7548
X6.9989Y-4.8987
X7.0444Y-1.7548
X7.4729Y-2.09
X7.4729Y-2.19
X7.4729Y-2.29
X7.5591Y-3.4449
X7.5591Y-3.5449
X7.5591Y-3.6449
X7.5591Y-4.3677
X7.5591Y-4.4677
X7.5591Y-4.5677
X7.6997Y-2.6491
X7.6997Y-3.1491
X7.7953Y-4.3494
X7.7953Y-4.4494
X7.7953Y-4.5494
X7.7997Y-2.6491
X7.7997Y-3.1491
X7.815Y-3.4449
X7.815Y-3.5449
X7.815Y-3.6449
X7.8997Y-2.6491
X7.8997Y-3.1491
X7.9997Y-2.6491
X7.9997Y-3.1491
X8.0512Y-3.4636
X8.0512Y-3.5636
X8.0512Y-3.6636
X8.0512Y-4.3488
X8.0512Y-4.4488
X8.0512Y-4.5488
X8.0997Y-2.6491
X8.0997Y-3.1491
X8.1997Y-2.6491
X8.1997Y-3.1491
X8.3071Y-3.463
X8.3071Y-3.563
X8.3071Y-3.663
X8.3071Y-4.3663
X8.3071Y-4.4663
X8.3071Y-4.5663
T3
X2.9134Y-1.752
X2.9134Y-5.1378
X8.4843Y-1.7323
X8.5039Y-5.1378
T4
X3.0497Y-3.8399
X3.0497Y-4.3399
X3.8497Y-3.8399
X3.8497Y-4.3399
X4.1836Y-4.2987
X4.1836Y-4.8987
X4.229Y-1.7548
X4.229Y-2.3548
X4.9836Y-4.2987
X4.9836Y-4.8987
X5.029Y-1.7548
X5.029Y-2.3548
X5.2615Y-4.2987
X5.2615Y-4.8987
X5.3117Y-1.7548
X5.3117Y-2.3548
X6.0615Y-4.2987
X6.0615Y-4.8987
X6.1117Y-1.7548
X6.1117Y-2.3548
X6.3489Y-4.2987
X6.3489Y-4.8987
X6.3944Y-1.7548
X6.3944Y-2.3548
X7.1489Y-4.2987
X7.1489Y-4.8987
X7.1944Y-1.7548
X7.1944Y-2.3548
X7.5497Y-2.6491
X7.5497Y-3.1491
X8.3497Y-2.6491
X8.3497Y-3.1491
T0
M30
