%TF.GenerationSoftware,KiCad,Pcbnew,(6.0.0-0)*%
%TF.CreationDate,2022-10-28T11:21:17-04:00*%
%TF.ProjectId,PEC_Prognostic_Board,5045435f-5072-46f6-976e-6f737469635f,1.2*%
%TF.SameCoordinates,Original*%
%TF.FileFunction,Soldermask,Bot*%
%TF.FilePolarity,Negative*%
%FSLAX46Y46*%
G04 Gerber Fmt 4.6, Leading zero omitted, Abs format (unit mm)*
G04 Created by KiCad (PCBNEW (6.0.0-0)) date 2022-10-28 11:21:17*
%MOMM*%
%LPD*%
G01*
G04 APERTURE LIST*
%ADD10R,1.700000X1.700000*%
%ADD11O,1.700000X1.700000*%
%ADD12C,1.700000*%
%ADD13C,1.600000*%
%ADD14C,1.879600*%
%ADD15C,3.301600*%
%ADD16C,2.600000*%
%ADD17C,3.800000*%
%ADD18R,1.508000X1.508000*%
%ADD19C,1.508000*%
%ADD20C,3.516000*%
%ADD21R,1.905000X2.000000*%
%ADD22O,1.905000X2.000000*%
%ADD23C,1.778000*%
G04 APERTURE END LIST*
D10*
%TO.C,U9*%
X174218923Y-124379750D03*
D11*
X171678923Y-124379750D03*
D12*
X169138923Y-124379750D03*
%TD*%
D13*
%TO.C,R1*%
X160020000Y-58415000D03*
X160020000Y-53335000D03*
%TD*%
D14*
%TO.C,U1*%
X82543000Y-110233000D03*
X85083000Y-110233000D03*
X87623000Y-110233000D03*
X90163000Y-110233000D03*
X92703000Y-110233000D03*
D15*
X77463000Y-97533000D03*
X97783000Y-110233000D03*
X97783000Y-97533000D03*
X77463000Y-110233000D03*
%TD*%
D10*
%TO.C,TH7*%
X137160000Y-46990000D03*
D11*
X137160000Y-49530000D03*
%TD*%
D10*
%TO.C,TH5*%
X144780000Y-46990000D03*
D11*
X144780000Y-49530000D03*
%TD*%
D16*
%TO.C,REF\u002A\u002A*%
X180848000Y-127254000D03*
D17*
X180848000Y-127254000D03*
%TD*%
D13*
%TO.C,R13*%
X169672000Y-89149000D03*
X169672000Y-84069000D03*
%TD*%
%TO.C,R23*%
X93223000Y-126746000D03*
X98303000Y-126746000D03*
%TD*%
D10*
%TO.C,TH6*%
X140970000Y-46990000D03*
D11*
X140970000Y-49530000D03*
%TD*%
D10*
%TO.C,J2*%
X179578000Y-77724000D03*
D11*
X179578000Y-75184000D03*
X179578000Y-72644000D03*
%TD*%
D18*
%TO.C,U4*%
X109474000Y-100266500D03*
D19*
X112014000Y-100266500D03*
X114554000Y-100266500D03*
X117094000Y-100266500D03*
X119634000Y-100266500D03*
X122174000Y-100266500D03*
X124714000Y-100266500D03*
X127254000Y-100266500D03*
X129794000Y-100266500D03*
X132334000Y-100266500D03*
D20*
X132334000Y-112966500D03*
X109474000Y-112966500D03*
%TD*%
D13*
%TO.C,R12*%
X174244000Y-84074000D03*
X174244000Y-89154000D03*
%TD*%
%TO.C,R9*%
X169672000Y-70607000D03*
X169672000Y-65527000D03*
%TD*%
%TO.C,R2*%
X156210000Y-58415000D03*
X156210000Y-53335000D03*
%TD*%
D10*
%TO.C,J3*%
X119375000Y-96266000D03*
D11*
X121915000Y-96266000D03*
%TD*%
D10*
%TO.C,U12*%
X74311267Y-88268923D03*
D11*
X74311267Y-85728923D03*
D12*
X74311267Y-83188923D03*
%TD*%
D13*
%TO.C,R0*%
X163830000Y-58415000D03*
X163830000Y-53335000D03*
%TD*%
D17*
%TO.C,REF\u002A\u002A*%
X73406000Y-43688000D03*
D16*
X73406000Y-43688000D03*
%TD*%
D13*
%TO.C,R8*%
X174244000Y-65532000D03*
X174244000Y-70612000D03*
%TD*%
%TO.C,R10*%
X174244000Y-74681000D03*
X174244000Y-79761000D03*
%TD*%
D10*
%TO.C,U11*%
X74311267Y-73268923D03*
D11*
X74311267Y-70728923D03*
D12*
X74311267Y-68188923D03*
%TD*%
D13*
%TO.C,R3*%
X152400000Y-58415000D03*
X152400000Y-53335000D03*
%TD*%
D10*
%TO.C,TH0*%
X163830000Y-46990000D03*
D11*
X163830000Y-49530000D03*
%TD*%
D10*
%TO.C,TH4*%
X148590000Y-46990000D03*
D11*
X148590000Y-49530000D03*
%TD*%
D10*
%TO.C,U10*%
X74444250Y-58165647D03*
D11*
X74444250Y-55625647D03*
D12*
X74444250Y-53085647D03*
%TD*%
D21*
%TO.C,Q1*%
X108458000Y-122428000D03*
D22*
X110998000Y-122428000D03*
X113538000Y-122428000D03*
%TD*%
D13*
%TO.C,R22*%
X127513000Y-96266000D03*
X132593000Y-96266000D03*
%TD*%
%TO.C,R21*%
X172212000Y-93726000D03*
X167132000Y-93726000D03*
%TD*%
D17*
%TO.C,REF\u002A\u002A*%
X72898000Y-127508000D03*
D16*
X72898000Y-127508000D03*
%TD*%
D10*
%TO.C,TH3*%
X152400000Y-46990000D03*
D11*
X152400000Y-49530000D03*
%TD*%
D16*
%TO.C,REF\u002A\u002A*%
X180340000Y-43942000D03*
D17*
X180340000Y-43942000D03*
%TD*%
D10*
%TO.C,J1*%
X75420000Y-121040000D03*
D11*
X75420000Y-118500000D03*
X77960000Y-121040000D03*
X77960000Y-118500000D03*
X80500000Y-121040000D03*
X80500000Y-118500000D03*
X83040000Y-121040000D03*
X83040000Y-118500000D03*
X85580000Y-121040000D03*
X85580000Y-118500000D03*
X88120000Y-121040000D03*
X88120000Y-118500000D03*
X90660000Y-121040000D03*
X90660000Y-118500000D03*
X93200000Y-121040000D03*
X93200000Y-118500000D03*
X95740000Y-121040000D03*
X95740000Y-118500000D03*
X98280000Y-121040000D03*
X98280000Y-118500000D03*
%TD*%
D10*
%TO.C,TH1*%
X160020000Y-46990000D03*
D11*
X160020000Y-49530000D03*
%TD*%
D18*
%TO.C,U3*%
X138430000Y-100012500D03*
D19*
X140970000Y-100012500D03*
X143510000Y-100012500D03*
X146050000Y-100012500D03*
X148590000Y-100012500D03*
X151130000Y-100012500D03*
X153670000Y-100012500D03*
X156210000Y-100012500D03*
X158750000Y-100012500D03*
X161290000Y-100012500D03*
D20*
X161290000Y-112712500D03*
X138430000Y-112712500D03*
%TD*%
D14*
%TO.C,U2*%
X112953000Y-57828000D03*
X115493000Y-57828000D03*
X118033000Y-57828000D03*
X120573000Y-57828000D03*
X123113000Y-57828000D03*
X125653000Y-57828000D03*
D23*
X112953000Y-45128000D03*
X115493000Y-45128000D03*
X118033000Y-45128000D03*
X120573000Y-45128000D03*
X123113000Y-45128000D03*
X125653000Y-45128000D03*
D15*
X129463000Y-57828000D03*
X109143000Y-45128000D03*
X129463000Y-45128000D03*
X109143000Y-57828000D03*
%TD*%
D10*
%TO.C,TH2*%
X156210000Y-46990000D03*
D11*
X156210000Y-49530000D03*
%TD*%
D13*
%TO.C,R20*%
X119893000Y-121920000D03*
X124973000Y-121920000D03*
%TD*%
%TO.C,R5*%
X144780000Y-58415000D03*
X144780000Y-53335000D03*
%TD*%
%TO.C,R4*%
X148590000Y-58415000D03*
X148590000Y-53335000D03*
%TD*%
%TO.C,R6*%
X140970000Y-58415000D03*
X140970000Y-53335000D03*
%TD*%
%TO.C,R11*%
X169672000Y-80005000D03*
X169672000Y-74925000D03*
%TD*%
D10*
%TO.C,J4*%
X169672000Y-60960000D03*
%TD*%
D13*
%TO.C,R7*%
X137160000Y-58420000D03*
X137160000Y-53340000D03*
%TD*%
M02*
