M48
; DRILL file {KiCad (6.0.0-0)} date Friday, 28 October 2022 at 11:21:22
; FORMAT={-:-/ absolute / inch / decimal}
; #@! TF.CreationDate,2022-10-28T11:21:22-04:00
; #@! TF.GenerationSoftware,Kicad,Pcbnew,(6.0.0-0)
; #@! TF.FileFunction,MixedPlating,1,4
FMAT,2
INCH
; #@! TA.AperFunction,Plated,PTH,ViaDrill
T1C0.0157
; #@! TA.AperFunction,Plated,PTH,ComponentDrill
T2C0.0315
; #@! TA.AperFunction,Plated,PTH,ComponentDrill
T3C0.0394
; #@! TA.AperFunction,Plated,PTH,ComponentDrill
T4C0.0433
; #@! TA.AperFunction,Plated,PTH,ComponentDrill
T5C0.0866
; #@! TA.AperFunction,Plated,PTH,ComponentDrill
T6C0.0984
%
G90
G05
T1
X2.89Y-4.77
X2.97Y-2.06
X2.97Y-4.57
X2.98Y-4.42
X2.99Y-2.69
X2.99Y-3.27
X3.25Y-4.41
X4.45Y-2.34
X4.58Y-4.21
X4.7Y-4.26
X5.11Y-2.4
X5.21Y-3.88
X5.24Y-4.21
X5.42Y-4.02
X5.46Y-2.32
X5.67Y-2.35
X5.67Y-2.83
X5.7Y-3.76
X5.8Y-4.02
X5.85Y-3.0
X5.95Y-3.87
X6.09Y-2.33
X6.1Y-3.5
X6.1Y-3.77
X6.27Y-2.35
X6.35Y-3.87
X6.54Y-2.31
X6.63Y-4.85
T2
X3.6702Y-4.99
X3.8702Y-4.99
X4.7202Y-4.8
X4.9202Y-4.8
X5.0202Y-3.79
X5.2202Y-3.79
X5.4Y-2.1
X5.4Y-2.3
X5.55Y-2.0998
X5.55Y-2.2998
X5.7Y-2.0998
X5.7Y-2.2998
X5.85Y-2.0998
X5.85Y-2.2998
X6.0Y-2.0998
X6.0Y-2.2998
X6.15Y-2.0998
X6.15Y-2.2998
X6.3Y-2.0998
X6.3Y-2.2998
X6.45Y-2.0998
X6.45Y-2.2998
X6.58Y-3.69
X6.68Y-2.5798
X6.68Y-2.7798
X6.68Y-2.9498
X6.68Y-3.1498
X6.68Y-3.3098
X6.68Y-3.5098
X6.78Y-3.69
X6.86Y-2.58
X6.86Y-2.78
X6.86Y-2.9402
X6.86Y-3.1402
X6.86Y-3.31
X6.86Y-3.51
T3
X2.9256Y-2.6846
X2.9256Y-2.7846
X2.9256Y-2.8846
X2.9256Y-3.2752
X2.9256Y-3.3752
X2.9256Y-3.4752
X2.9309Y-2.09
X2.9309Y-2.19
X2.9309Y-2.29
X2.9693Y-4.6654
X2.9693Y-4.7654
X3.0693Y-4.6654
X3.0693Y-4.7654
X3.1693Y-4.6654
X3.1693Y-4.7654
X3.2497Y-4.3399
X3.2693Y-4.6654
X3.2693Y-4.7654
X3.3497Y-4.3399
X3.3693Y-4.6654
X3.3693Y-4.7654
X3.4497Y-4.3399
X3.4693Y-4.6654
X3.4693Y-4.7654
X3.5497Y-4.3399
X3.5693Y-4.6654
X3.5693Y-4.7654
X3.6497Y-4.3399
X3.6693Y-4.6654
X3.6693Y-4.7654
X3.7693Y-4.6654
X3.7693Y-4.7654
X3.8693Y-4.6654
X3.8693Y-4.7654
X4.31Y-3.9475
X4.41Y-3.9475
X4.447Y-1.7767
X4.447Y-2.2767
X4.51Y-3.9475
X4.547Y-1.7767
X4.547Y-2.2767
X4.61Y-3.9475
X4.647Y-1.7767
X4.647Y-2.2767
X4.6998Y-3.79
X4.71Y-3.9475
X4.747Y-1.7767
X4.747Y-2.2767
X4.7998Y-3.79
X4.81Y-3.9475
X4.847Y-1.7767
X4.847Y-2.2767
X4.91Y-3.9475
X4.947Y-1.7767
X4.947Y-2.2767
X5.01Y-3.9475
X5.11Y-3.9475
X5.21Y-3.9475
X5.4Y-1.85
X5.4Y-1.95
X5.45Y-3.9375
X5.55Y-1.85
X5.55Y-1.95
X5.55Y-3.9375
X5.65Y-3.9375
X5.7Y-1.85
X5.7Y-1.95
X5.75Y-3.9375
X5.85Y-1.85
X5.85Y-1.95
X5.85Y-3.9375
X5.95Y-3.9375
X6.0Y-1.85
X6.0Y-1.95
X6.05Y-3.9375
X6.15Y-1.85
X6.15Y-1.95
X6.15Y-3.9375
X6.25Y-3.9375
X6.3Y-1.85
X6.3Y-1.95
X6.35Y-3.9375
X6.45Y-1.85
X6.45Y-1.95
X6.659Y-4.8968
X6.68Y-2.4
X6.759Y-4.8968
X6.859Y-4.8968
X7.07Y-2.86
X7.07Y-2.96
X7.07Y-3.06
T4
X4.27Y-4.82
X4.37Y-4.82
X4.47Y-4.82
T5
X2.87Y-5.02
X2.89Y-1.72
X7.1Y-1.73
X7.12Y-5.01
T6
X3.0497Y-3.8399
X3.0497Y-4.3399
X3.8497Y-3.8399
X3.8497Y-4.3399
X4.297Y-1.7767
X4.297Y-2.2767
X4.31Y-4.4475
X5.097Y-1.7767
X5.097Y-2.2767
X5.21Y-4.4475
X5.45Y-4.4375
X6.35Y-4.4375
T0
M30
