<svg xmlns="http://www.w3.org/2000/svg" xmlns:xlink="http://www.w3.org/1999/xlink" xmlns:lucid="lucid" width="2028.14" height="1501"><g transform="translate(0 240)" lucid:page-tab-id="0_0"><path d="M0-1296h3456v2656H0z" fill="#fff"/><path d="M1020 146a6 6 0 0 1 6-6h88a6 6 0 0 1 6 6v1048a6 6 0 0 1-6 6h-88a6 6 0 0 1-6-6z" stroke="#3a414a" stroke-width="2" fill="#fff"/><path d="M148-200c17.67 0 32 17.9 32 40s-14.33 40-32 40H52c-17.67 0-32-17.9-32-40s14.33-40 32-40z" stroke="#008a0e" stroke-width="2" fill="#fff"/><use xlink:href="#a" transform="matrix(1,0,0,1,25,-195) translate(51.574074074074076 39.65277777777778)"/><path d="M300 446a6 6 0 0 1 6-6h148a6 6 0 0 1 6 6v108a6 6 0 0 1-6 6H306a6 6 0 0 1-6-6z" stroke="#3a414a" stroke-width="2" fill="#fff"/><use xlink:href="#b" transform="matrix(1,0,0,1,312,452) translate(6.827160493827165 53.77777777777778)"/><use xlink:href="#c" transform="matrix(1,0,0,1,312,452) translate(72.44444444444444 53.77777777777778)"/><path d="M480 526a6 6 0 0 1 6-6h148a6 6 0 0 1 6 6v108a6 6 0 0 1-6 6H486a6 6 0 0 1-6-6z" stroke="#3a414a" stroke-width="2" fill="#fff"/><use xlink:href="#d" transform="matrix(1,0,0,1,492,532) translate(25.5 38.77777777777778)"/><use xlink:href="#e" transform="matrix(1,0,0,1,492,532) translate(62.47530864197531 38.77777777777778)"/><use xlink:href="#c" transform="matrix(1,0,0,1,492,532) translate(39.635802469135804 65.44444444444446)"/><path d="M540 646a6 6 0 0 1 6-6h148a6 6 0 0 1 6 6v211.33a6 6 0 0 1-6 6H546a6 6 0 0 1-6-6z" stroke="#3a414a" stroke-width="2" fill="#fff"/><path d="M556 640v223.33M684 640v223.33" stroke="#3a414a" stroke-width="2" fill="none"/><use xlink:href="#f" transform="matrix(1,0,0,1,565,645) translate(0 18.11111111111112)"/><use xlink:href="#g" transform="matrix(1,0,0,1,565,645) translate(71.5432098765432 18.11111111111112)"/><use xlink:href="#h" transform="matrix(1,0,0,1,565,645) translate(0 44.777777777777786)"/><use xlink:href="#i" transform="matrix(1,0,0,1,565,645) translate(0 71.44444444444446)"/><use xlink:href="#j" transform="matrix(1,0,0,1,565,645) translate(73.9506172839506 71.44444444444446)"/><use xlink:href="#k" transform="matrix(1,0,0,1,565,645) translate(0 98.11111111111111)"/><use xlink:href="#l" transform="matrix(1,0,0,1,565,645) translate(36.97530864197531 98.11111111111111)"/><use xlink:href="#m" transform="matrix(1,0,0,1,565,645) translate(0 124.7777777777778)"/><use xlink:href="#j" transform="matrix(1,0,0,1,565,645) translate(75.92592592592592 124.7777777777778)"/><use xlink:href="#n" transform="matrix(1,0,0,1,565,645) translate(0 151.44444444444446)"/><use xlink:href="#o" transform="matrix(1,0,0,1,565,645) translate(0 178.11111111111111)"/><use xlink:href="#p" transform="matrix(1,0,0,1,565,645) translate(0 204.77777777777777)"/><path d="M864 520c8.84 0 16 26.86 16 60s-7.16 60-16 60H736c-8.84 0-16-26.86-16-60s7.16-60 16-60z" stroke="#3a414a" stroke-width="2" fill="#fff"/><path d="M864 640c-8.84 0-16-26.86-16-60s7.16-60 16-60" stroke="#3a414a" stroke-width="2" fill="none"/><use xlink:href="#q" transform="matrix(1,0,0,1,725,525) translate(18.290123456790127 45.27777777777778)"/><use xlink:href="#c" transform="matrix(1,0,0,1,725,525) translate(30.635802469135804 71.94444444444446)"/><path d="M760 646a6 6 0 0 1 6-6h208a6 6 0 0 1 6 6v388a6 6 0 0 1-6 6H766a6 6 0 0 1-6-6z" stroke="#3a414a" stroke-width="2" fill="#fff"/><path d="M782 640v400m176-400v400" stroke="#3a414a" stroke-width="2" fill="none"/><use xlink:href="#r" transform="matrix(1,0,0,1,792.5,645) translate(0 26.111111111111093)"/><use xlink:href="#s" transform="matrix(1,0,0,1,792.5,645) translate(77.5925925925926 26.111111111111093)"/><use xlink:href="#t" transform="matrix(1,0,0,1,792.5,645) translate(0 52.777777777777764)"/><use xlink:href="#u" transform="matrix(1,0,0,1,792.5,645) translate(0 79.44444444444443)"/><use xlink:href="#v" transform="matrix(1,0,0,1,792.5,645) translate(24.691358024691358 79.44444444444443)"/><use xlink:href="#w" transform="matrix(1,0,0,1,792.5,645) translate(60.4320987654321 79.44444444444443)"/><use xlink:href="#x" transform="matrix(1,0,0,1,792.5,645) translate(0 106.11111111111109)"/><use xlink:href="#v" transform="matrix(1,0,0,1,792.5,645) translate(24.691358024691358 106.11111111111109)"/><use xlink:href="#y" transform="matrix(1,0,0,1,792.5,645) translate(60.4320987654321 106.11111111111109)"/><use xlink:href="#z" transform="matrix(1,0,0,1,792.5,645) translate(0 132.77777777777777)"/><use xlink:href="#A" transform="matrix(1,0,0,1,792.5,645) translate(24.691358024691358 132.77777777777777)"/><use xlink:href="#B" transform="matrix(1,0,0,1,792.5,645) translate(0 159.44444444444443)"/><use xlink:href="#C" transform="matrix(1,0,0,1,792.5,645) translate(0 186.1111111111111)"/><use xlink:href="#v" transform="matrix(1,0,0,1,792.5,645) translate(24.691358024691358 186.1111111111111)"/><use xlink:href="#D" transform="matrix(1,0,0,1,792.5,645) translate(60.4320987654321 186.1111111111111)"/><use xlink:href="#E" transform="matrix(1,0,0,1,792.5,645) translate(0 212.77777777777774)"/><use xlink:href="#A" transform="matrix(1,0,0,1,792.5,645) translate(24.691358024691358 212.77777777777774)"/><use xlink:href="#F" transform="matrix(1,0,0,1,792.5,645) translate(0 239.4444444444444)"/><use xlink:href="#G" transform="matrix(1,0,0,1,792.5,645) translate(0 266.1111111111111)"/><use xlink:href="#v" transform="matrix(1,0,0,1,792.5,645) translate(24.691358024691358 266.1111111111111)"/><use xlink:href="#H" transform="matrix(1,0,0,1,792.5,645) translate(60.4320987654321 266.1111111111111)"/><use xlink:href="#I" transform="matrix(1,0,0,1,792.5,645) translate(0 292.7777777777777)"/><use xlink:href="#J" transform="matrix(1,0,0,1,792.5,645) translate(0 319.4444444444444)"/><use xlink:href="#K" transform="matrix(1,0,0,1,792.5,645) translate(0 346.1111111111111)"/><use xlink:href="#v" transform="matrix(1,0,0,1,792.5,645) translate(24.691358024691358 346.1111111111111)"/><use xlink:href="#L" transform="matrix(1,0,0,1,792.5,645) translate(60.4320987654321 346.1111111111111)"/><use xlink:href="#M" transform="matrix(1,0,0,1,792.5,645) translate(0 372.77777777777777)"/><a xlink:href="http://1.Clear" target="_blank" transform="matrix(1,0,0,1,792.5,645)"><path class="lucid-link lucid-hotspot lucid-overlay-hotspot" fill-opacity="0" d="M0 8.33h71.42V35H0z"/></a><path d="M733.9 641.58V834a6 6 0 0 0 6 6h.63" stroke="#3a414a" stroke-width="2" fill="none"/><path d="M733.2 640.25l.5.25.48.2.47.13.25.05v.72h-2v-1.53z" stroke="#3a414a" stroke-width=".05" fill="#3a414a"/><path d="M755.8 840l-14.27 4.64v-9.28z" stroke="#3a414a" stroke-width="2" fill="#3a414a"/><path d="M495.47 642v103.67a6 6 0 0 0 6 6h19.06" stroke="#3a414a" stroke-width="2" fill="none"/><path d="M496.47 642.02h-2V641h2z" stroke="#3a414a" stroke-width=".05" fill="#3a414a"/><path d="M535.8 751.67l-14.27 4.63v-9.27z" stroke="#3a414a" stroke-width="2" fill="#3a414a"/><path d="M100-118V44a6 6 0 0 0 6 6h128a6 6 0 0 1 6 6v144.53" stroke="#008a0e" stroke-width="2" fill="none"/><path d="M101-117.97h-2V-119h2z" stroke="#008a0e" stroke-width=".05" fill="#008a0e"/><path d="M240 215.8l-4.64-14.27h9.28z" stroke="#008a0e" stroke-width="2" fill="#008a0e"/><path d="M380 561.96V574a6 6 0 0 0 6 6h74.53" stroke="#008a0e" stroke-width="2" fill="none"/><path d="M381 562h-2v-1.04h2z" stroke="#008a0e" stroke-width=".05" fill="#008a0e"/><path d="M475.8 580l-14.27 4.64v-9.28z" stroke="#008a0e" stroke-width="2" fill="#008a0e"/><path d="M641.96 580h58.54" stroke="#008a0e" stroke-width="2" fill="none"/><path d="M642 581h-1.04v-2H642z" stroke="#008a0e" stroke-width=".05" fill="#008a0e"/><path d="M715.76 580l-14.26 4.64v-9.28z" stroke="#008a0e" stroke-width="2" fill="#008a0e"/><path d="M189.18 225.3A10 10 0 0 1 198 220h84a10 10 0 0 1 8.82 5.3l26.36 49.4a11.25 11.25 0 0 1 0 10.6l-26.36 49.4A10 10 0 0 1 282 340h-84a10 10 0 0 1-8.82-5.3l-26.36-49.4a11.25 11.25 0 0 1 0-10.6z" stroke="#3a414a" stroke-width="2" fill="#fff"/><use xlink:href="#N" transform="matrix(1,0,0,1,165.00000000000003,225) translate(43.523518518518514 31.52777777777778)"/><use xlink:href="#O" transform="matrix(1,0,0,1,165.00000000000003,225) translate(43.40623456790123 58.19444444444445)"/><use xlink:href="#P" transform="matrix(1,0,0,1,165.00000000000003,225) translate(36.82598765432098 84.86111111111111)"/><path d="M374.04 389l1.06.1 1.06.24 1.02.42.94.58.83.7.72.85.57.92.42 1.02.27 1.1.07 25.6h-2l-.07-25.35-.18-.74-.3-.72-.4-.67-.52-.6-.6-.5-.66-.42-.73-.3-.76-.18-.82-.07h-21.54v-2zM241 383.96l.06.83.2.75.3.72.4.67.5.6.6.5.67.42.73.3.72.17h22.4v2h-22.64l-1.1-.27-1.02-.42-.94-.57-.83-.7-.72-.85-.57-.94-.42-1-.26-1.08-.08-1.06v-42.07h2z" stroke="#008a0e" stroke-width=".05" fill="#008a0e"/><path d="M241 342h-2v-1.03h2z" fill="#008a0e"/><path d="M241.03 342.02h-2.06v-1.07h2.06zm-2-1.02v.97h1.94V341z" stroke="#008a0e" stroke-width=".05" fill="#008a0e"/><path d="M380 435.8l-4.64-14.27h9.28z" fill="#008a0e"/><path d="M380 439.04l-6-18.5h12zm-3.26-16.5l3.26 10.02 3.26-10.03z" stroke="#008a0e" stroke-width=".05" fill="#008a0e"/><use xlink:href="#Q" transform="matrix(1,0,0,1,267.58024691358025,379.3372912351211) translate(0 14.222222222222223)"/><path d="M330.93 238.57l-.27 1.1-.42 1.02-.57.92-.72.84-.83.7-.94.6-1.02.4-1.06.27-1.06.08h-21.4v-2h21.32l.82-.06.76-.18.73-.3.67-.4.6-.52.5-.6.4-.66.3-.73.2-.72.05-57.8h2zm66.72-343.82l-.07 264.46h-2l.07-264.45z" stroke="#e81313" stroke-width=".05" fill="#e81313"/><path d="M302.66 244.5h-.5l-1.06-2h1.56z" fill="#e81313"/><path d="M302.68 244.53h-.53l-1.1-2.05h1.63zm-1.54-2l1.04 1.95h.45v-1.95z" stroke="#e81313" stroke-width=".05" fill="#e81313"/><path d="M401.3-106.25H392l4.63-14.27z" fill="#e81313"/><path d="M402.66-105.25h-12.02l6-18.5zm-9.27-2h6.5l-3.25-10.03z" stroke="#e81313" stroke-width=".05" fill="#e81313"/><use xlink:href="#R" transform="matrix(1,0,0,1,298.8098073416925,159.20985678578168) translate(0 14.222222222222223)"/><use xlink:href="#S" transform="matrix(1,0,0,1,298.8098073416925,159.20985678578168) translate(42.370370370370374 14.222222222222223)"/><path d="M508-200c17.67 0 32 17.9 32 40s-14.33 40-32 40h-96c-17.67 0-32-17.9-32-40s14.33-40 32-40z" stroke="#e81313" stroke-width="2" fill="#fff"/><use xlink:href="#T" transform="matrix(1,0,0,1,385,-195) translate(55.24691358024691 39.65277777777778)"/><path d="M445.48 184.82l.17.72.3.73.4.67.52.6.6.5.66.4.73.3.76.2.82.06 45.58.07 1.1.27 1.02.42.94.57.84.72.7.83.58.94.42 1.02.26 1.06.08 1.06-.07 299.1-.28 1.1-.42 1.02-.57.94-.7.83-.85.72-.94.57-1 .42-1.08.26-1.06.08h-33.04v-2h32.96l.83-.06.76-.2.73-.3.67-.4.6-.5.5-.6.42-.67.3-.73.17-.72.06-298.78-.06-.82-.18-.76-.3-.73-.4-.67-.52-.6-.6-.5-.67-.4-.72-.3-.72-.2-45.42-.06-1.05-.08-1.06-.26-1.02-.42-.93-.57-.85-.72-.7-.83-.6-.94-.4-1.02-.27-1.1-.08-285.56h2z" stroke="#e81313" stroke-width=".05" fill="#e81313"/><path d="M462 501h-1.04v-2H462z" fill="#e81313"/><path d="M462 501.02h-1.06v-2.04H462zm-1-2v1.96h.96v-1.96z" stroke="#e81313" stroke-width=".05" fill="#e81313"/><path d="M449.04-101.5h-9.27l4.63-14.26z" fill="#e81313"/><path d="M450.42-100.5H438.4l6-18.5zm-9.28-2h6.52l-3.26-10.03z" stroke="#e81313" stroke-width=".05" fill="#e81313"/><path d="M641.94 545.12h33a6 6 0 0 0 6-6V186a6 6 0 0 0-6-6H466a6 6 0 0 1-6-6v-274.5" stroke="#e81313" stroke-width="2" fill="none"/><path d="M641.97 546.12h-1.03v-2h1.03z" stroke="#e81313" stroke-width=".05" fill="#e81313"/><path d="M460-115.76l4.64 14.26h-9.28z" stroke="#e81313" stroke-width="2" fill="#e81313"/><path d="M877.8 539.34h33a6 6 0 0 0 6-6V176a6 6 0 0 0-6-6H480.42a6 6 0 0 1-6-6v-264.5" stroke="#e81313" stroke-width="2" fill="none"/><path d="M877.82 540.34H877l-.17-.88-.32-1.12h1.32z" stroke="#e81313" stroke-width=".05" fill="#e81313"/><path d="M474.43-115.76l4.64 14.26h-9.27z" stroke="#e81313" stroke-width="2" fill="#e81313"/><path d="M1060 580c0 22.1-17.9 40-40 40s-40-17.9-40-40 17.9-40 40-40 40 17.9 40 40z" stroke="#3a414a" stroke-width="2" fill="#fff"/><use xlink:href="#U" transform="matrix(1,0,0,1,985,545) translate(7.2889506172839535 23.787777777777777)"/><use xlink:href="#V" transform="matrix(1,0,0,1,985,545) translate(4.140802469135801 50.45444444444445)"/><path d="M882 580h78.5" stroke="#008a0e" stroke-width="2" fill="none"/><path d="M882.03 581h-1.07l.04-1-.03-1h1.06z" stroke="#008a0e" stroke-width=".05" fill="#008a0e"/><path d="M975.76 580l-14.26 4.64v-9.28z" stroke="#008a0e" stroke-width="2" fill="#008a0e"/><path d="M1044.17 528.07V166a6 6 0 0 1 6-6H1094a6 6 0 0 1 6 6v1008a6 6 0 0 1-6 6h-43.83a6 6 0 0 1-6-6V614.84" stroke="#d916a8" stroke-width="2" fill="none"/><path d="M1034.17 546.45l10-20 10 20" stroke="#d916a8" stroke-width="2" fill="#fff" fill-opacity="0"/><path d="M1044.17 546.45v-20" stroke="#d916a8" stroke-width="2" fill="#fff"/><path d="M1054.35 632.2l-10.18-17.2-10.18 17.2" stroke="#d916a8" stroke-width="2" fill="none"/><path d="M1234.7 181.13a11.37 11.37 0 0 1 10.6 0l49.4 26.07a3.17 3.17 0 0 1 0 5.6l-49.4 26.07a11.37 11.37 0 0 1-10.6 0l-49.4-26.07a3.17 3.17 0 0 1 0-5.6z" stroke="#3a414a" stroke-width="2" fill="#fff"/><use xlink:href="#W" transform="matrix(1,0,0,1,1185,183.33333333333334) translate(21.338333333333342 28.009999999999998)"/><use xlink:href="#X" transform="matrix(1,0,0,1,1185,183.33333333333334) translate(35.807469135802485 43.121111111111105)"/><path d="M1338.3 205.06l-.25 1.1-.42 1.02-.58.94-.7.83-.85.72-.93.57-1.02.42-1.07.26-1.05.08h-33.04v-2h32.95l.82-.06.76-.2.73-.3.67-.4.6-.5.5-.6.4-.67.3-.73.18-.72.04-114.56h2zm-5.85-339l1.1.28 1.02.42.93.57.84.72.7.83.6.94.4 1.02.27 1.06.1 1.06-.06 195.97h-2l.05-195.9-.08-.8-.18-.77-.3-.73-.4-.67-.52-.6-.6-.5-.66-.4-.73-.3-.72-.2-472.7-.06v-2z" stroke="#e81313" stroke-width=".05" fill="#e81313"/><path d="M1298.4 211h-1.14l.03-.1.1-.9-.1-.9-.04-.1h1.15z" fill="#e81313"/><path d="M1298.44 211.03h-1.22l.05-.14.1-.9-.1-.9-.05-.13h1.22zm-1.15-2v.07l.1.9-.1.9v.07h1.1v-1.94z" stroke="#e81313" stroke-width=".05" fill="#e81313"/><path d="M858.5-128.36L844.24-133l14.26-4.64z" fill="#e81313"/><path d="M859.5-127l-18.5-6 18.5-6zm-12.03-6l10.03 3.26v-6.52z" stroke="#e81313" stroke-width=".05" fill="#e81313"/><use xlink:href="#Y" transform="matrix(1,0,0,1,1262.7461743059946,68.93133753164285) translate(0 14.222222222222223)"/><use xlink:href="#S" transform="matrix(1,0,0,1,1262.7461743059946,68.93133753164285) translate(64.44444444444446 14.222222222222223)"/><path d="M678-160H559.5" stroke="#e81313" stroke-width="2" fill="none"/><path d="M679-159h-1.03v-2H679z" stroke="#e81313" stroke-width=".05" fill="#e81313"/><path d="M544.24-160l14.26-4.64v9.28z" stroke="#e81313" stroke-width="2" fill="#e81313"/><path d="M1070 138.04V116a6 6 0 0 1 6-6h158a6 6 0 0 1 6 6v44.32" stroke="#d916a8" stroke-width="2" fill="none"/><path d="M1071 139.04h-2V138h2z" stroke="#d916a8" stroke-width=".05" fill="#d916a8"/><path d="M1240 175.58l-4.64-14.26h9.28z" stroke="#d916a8" stroke-width="2" fill="#d916a8"/><path d="M1240 242.18v18.35" stroke="#d916a8" stroke-width="2" fill="none"/><path d="M1240 241.18l1-.05v1.08h-2v-1.07z" stroke="#d916a8" stroke-width=".05" fill="#d916a8"/><path d="M1240 275.8l-4.64-14.27h9.28z" stroke="#d916a8" stroke-width="2" fill="#d916a8"/><path d="M1160 286a6 6 0 0 1 6-6h148a6 6 0 0 1 6 6v220.57a6 6 0 0 1-6 6h-148a6 6 0 0 1-6-6z" stroke="#3a414a" stroke-width="2" fill="#fff"/><use xlink:href="#Z" transform="matrix(1,0,0,1,1172,292) translate(5.746913580246911 109.21527777777777)"/><use xlink:href="#aa" transform="matrix(1,0,0,1,1172,292) translate(48.833333333333336 109.21527777777777)"/><path d="M1160 539.7a6 6 0 0 1 6-6h148a6 6 0 0 1 6 6v220.6a6 6 0 0 1-6 6h-148a6 6 0 0 1-6-6z" stroke="#3a414a" stroke-width="2" fill="#fff"/><use xlink:href="#ab" transform="matrix(1,0,0,1,1172,545.7142857142858) translate(26.888888888888886 96.15277777777777)"/><use xlink:href="#aa" transform="matrix(1,0,0,1,1172,545.7142857142858) translate(27.290123456790127 122.81944444444446)"/><path d="M1160 793.43a6 6 0 0 1 6-6h148a6 6 0 0 1 6 6V1014a6 6 0 0 1-6 6h-148a6 6 0 0 1-6-6z" stroke="#3a414a" stroke-width="2" fill="#fff"/><use xlink:href="#ac" transform="matrix(1,0,0,1,1172,799.4285714285714) translate(5.901234567901227 96.15277777777777)"/><use xlink:href="#ad" transform="matrix(1,0,0,1,1172,799.4285714285714) translate(47.87654320987654 96.15277777777777)"/><use xlink:href="#aa" transform="matrix(1,0,0,1,1172,799.4285714285714) translate(27.290123456790127 122.81944444444446)"/><path d="M1240 514.53v-.28" stroke="#3a414a" stroke-width="2" fill="none"/><path d="M1241 514.56h-2v-1.02h2z" stroke="#3a414a" stroke-width=".05" fill="#3a414a"/><path d="M1240 529.5l-4.64-14.25h9.28z" stroke="#3a414a" stroke-width="2" fill="#3a414a"/><path d="M1240 768.25v-.3" stroke="#3a414a" stroke-width="2" fill="none"/><path d="M1241 768.27h-2v-1.02h2z" stroke="#3a414a" stroke-width=".05" fill="#3a414a"/><path d="M1240 783.23l-4.64-14.27h9.28z" stroke="#3a414a" stroke-width="2" fill="#3a414a"/><path d="M1320 286a6 6 0 0 1 6-6h168a6 6 0 0 1 6 6v158a6 6 0 0 1-6 6h-168a6 6 0 0 1-6-6z" stroke="#3a414a" stroke-width="2" fill="#fff"/><path d="M1338 280v170m144-170v170" stroke="#3a414a" stroke-width="2" fill="none"/><use xlink:href="#ae" transform="matrix(1,0,0,1,1347.5,285) translate(0 17.77777777777778)"/><use xlink:href="#af" transform="matrix(1,0,0,1,1347.5,285) translate(0 44.44444444444444)"/><use xlink:href="#x" transform="matrix(1,0,0,1,1347.5,285) translate(0 71.11111111111111)"/><use xlink:href="#ag" transform="matrix(1,0,0,1,1347.5,285) translate(24.691358024691358 71.11111111111111)"/><use xlink:href="#z" transform="matrix(1,0,0,1,1347.5,285) translate(0 97.77777777777777)"/><use xlink:href="#D" transform="matrix(1,0,0,1,1347.5,285) translate(24.691358024691358 97.77777777777777)"/><use xlink:href="#C" transform="matrix(1,0,0,1,1347.5,285) translate(0 124.44444444444446)"/><use xlink:href="#F" transform="matrix(1,0,0,1,1347.5,285) translate(24.691358024691358 124.44444444444446)"/><use xlink:href="#E" transform="matrix(1,0,0,1,1347.5,285) translate(0 151.11111111111111)"/><use xlink:href="#ah" transform="matrix(1,0,0,1,1347.5,285) translate(24.691358024691358 151.11111111111111)"/><path d="M1321.55 539.5a4.6 4.6 0 0 1 4.45-5.8h168a4.6 4.6 0 0 1 4.45 5.8l-13.8 51.75a7.8 7.8 0 0 1-7.54 5.8h-134.2a7.8 7.8 0 0 1-7.56-5.8z" stroke="#3a414a" stroke-width="2" fill="#fff"/><g><use xlink:href="#ai" transform="matrix(1,0,0,1,1325,538.7142857142858) translate(11.36302469135803 17.77777777777778)"/><use xlink:href="#aj" transform="matrix(1,0,0,1,1325,538.7142857142858) translate(85.19018518518519 17.77777777777778)"/><use xlink:href="#ak" transform="matrix(1,0,0,1,1325,538.7142857142858) translate(145.684012345679 17.77777777777778)"/><use xlink:href="#al" transform="matrix(1,0,0,1,1325,538.7142857142858) translate(65.75191358024692 44.44444444444444)"/></g><path d="M1320 603.05a6 6 0 0 1 6-6h168a6 6 0 0 1 6 6v158a6 6 0 0 1-6 6h-168a6 6 0 0 1-6-6z" stroke="#3a414a" stroke-width="2" fill="#fff"/><path d="M1338 597.05v170m144-170v170" stroke="#3a414a" stroke-width="2" fill="none"/><g><use xlink:href="#ae" transform="matrix(1,0,0,1,1347.5,602.0476190476192) translate(0 17.77777777777778)"/><use xlink:href="#af" transform="matrix(1,0,0,1,1347.5,602.0476190476192) translate(0 44.44444444444444)"/><use xlink:href="#x" transform="matrix(1,0,0,1,1347.5,602.0476190476192) translate(0 71.11111111111111)"/><use xlink:href="#ag" transform="matrix(1,0,0,1,1347.5,602.0476190476192) translate(24.691358024691358 71.11111111111111)"/><use xlink:href="#z" transform="matrix(1,0,0,1,1347.5,602.0476190476192) translate(0 97.77777777777777)"/><use xlink:href="#D" transform="matrix(1,0,0,1,1347.5,602.0476190476192) translate(24.691358024691358 97.77777777777777)"/><use xlink:href="#C" transform="matrix(1,0,0,1,1347.5,602.0476190476192) translate(0 124.44444444444446)"/><use xlink:href="#F" transform="matrix(1,0,0,1,1347.5,602.0476190476192) translate(24.691358024691358 124.44444444444446)"/><use xlink:href="#E" transform="matrix(1,0,0,1,1347.5,602.0476190476192) translate(0 151.11111111111111)"/><use xlink:href="#ah" transform="matrix(1,0,0,1,1347.5,602.0476190476192) translate(24.691358024691358 151.11111111111111)"/></g><path d="M1560 286a6 6 0 0 1 6-6h148a6 6 0 0 1 6 6v118a6 6 0 0 1-6 6h-148a6 6 0 0 1-6-6z" stroke="#3a414a" stroke-width="2" fill="#fff"/><path d="M1576 280v130m128-130v130" stroke="#3a414a" stroke-width="2" fill="none"/><g><use xlink:href="#am" transform="matrix(1,0,0,1,1585,285) translate(23.913580246913586 20.888888888888893)"/><use xlink:href="#an" transform="matrix(1,0,0,1,1585,285) translate(74.23456790123457 20.888888888888893)"/><use xlink:href="#ao" transform="matrix(1,0,0,1,1585,285) translate(19.44444444444445 42.22222222222223)"/><use xlink:href="#ap" transform="matrix(1,0,0,1,1585,285) translate(17.000000000000007 63.55555555555556)"/><use xlink:href="#aq" transform="matrix(1,0,0,1,1585,285) translate(0.7037037037037095 84.88888888888889)"/><use xlink:href="#ar" transform="matrix(1,0,0,1,1585,285) translate(-1.1728395061728278 106.22222222222223)"/></g><path d="M1251.54 237.7v14.17a6 6 0 0 0 6 6h379.8a2.67 2.67 0 0 1 2.66 2.66" stroke="#d916a8" stroke-width="2" fill="none"/><path d="M1252.54 237.73h-2v-.5l2-1.06z" stroke="#d916a8" stroke-width=".05" fill="#d916a8"/><path d="M1640 275.8l-4.64-14.27h9.28z" stroke="#d916a8" stroke-width="2" fill="#d916a8"/><path d="M1333.9 793.23a7.8 7.8 0 0 1 7.55-5.8H1494a4.6 4.6 0 0 1 4.45 5.8l-12.36 46.35a7.8 7.8 0 0 1-7.55 5.8H1326a4.6 4.6 0 0 1-4.45-5.8z" stroke="#3a414a" stroke-width="2" fill="#fff"/><g><use xlink:href="#as" transform="matrix(1,0,0,1,1325,792.4285714285714) translate(9.480308641975308 17.77777777777778)"/><use xlink:href="#at" transform="matrix(1,0,0,1,1325,792.4285714285714) translate(97.87537037037038 17.77777777777778)"/><use xlink:href="#au" transform="matrix(1,0,0,1,1325,792.4285714285714) translate(53.34450617283951 44.44444444444444)"/></g><path d="M1320 851.38a6 6 0 0 1 6-6h168a6 6 0 0 1 6 6V1014a6 6 0 0 1-6 6h-168a6 6 0 0 1-6-6z" stroke="#3a414a" stroke-width="2" fill="#fff"/><path d="M1338 845.38V1020m144-174.62V1020" stroke="#3a414a" stroke-width="2" fill="none"/><g><use xlink:href="#ae" transform="matrix(1,0,0,1,1347.5,850.3809523809525) translate(0 20.27777777777778)"/><use xlink:href="#af" transform="matrix(1,0,0,1,1347.5,850.3809523809525) translate(0 46.94444444444444)"/><use xlink:href="#x" transform="matrix(1,0,0,1,1347.5,850.3809523809525) translate(0 73.61111111111111)"/><use xlink:href="#ag" transform="matrix(1,0,0,1,1347.5,850.3809523809525) translate(24.691358024691358 73.61111111111111)"/><use xlink:href="#z" transform="matrix(1,0,0,1,1347.5,850.3809523809525) translate(0 100.27777777777777)"/><use xlink:href="#D" transform="matrix(1,0,0,1,1347.5,850.3809523809525) translate(24.691358024691358 100.27777777777777)"/><use xlink:href="#C" transform="matrix(1,0,0,1,1347.5,850.3809523809525) translate(0 126.94444444444446)"/><use xlink:href="#F" transform="matrix(1,0,0,1,1347.5,850.3809523809525) translate(24.691358024691358 126.94444444444446)"/><use xlink:href="#E" transform="matrix(1,0,0,1,1347.5,850.3809523809525) translate(0 153.61111111111111)"/><use xlink:href="#ah" transform="matrix(1,0,0,1,1347.5,850.3809523809525) translate(24.691358024691358 153.61111111111111)"/></g><path d="M1641 1244.04l-.08 1.06-.26 1.06-.42 1.02-.57.94-.72.83-.83.72-.94.57-1.02.42-1.1.27-559.1.07-1.06-.08-1.06-.26-1.02-.42-.94-.57-.83-.72-.72-.83-.57-.94-.42-1.02-.27-1.1-.07-25.6h2l.07 25.36.18.72.3.73.4.67.52.6.6.5.66.4.73.3.76.2.82.06 558.78-.07.72-.18.73-.3.67-.4.6-.52.5-.6.4-.66.3-.73.2-.76.06-.82v-832h2z" stroke="#d916a8" stroke-width=".05" fill="#d916a8"/><path d="M1641 412h-2v-1.04h2z" fill="#d916a8"/><path d="M1641.03 412h-2.06v-1.06h2.06zm-2-1v.96h1.94V411z" stroke="#d916a8" stroke-width=".05" fill="#d916a8"/><path d="M1074.64 1218.47h-9.28l4.64-14.27z" fill="#d916a8"/><path d="M1076 1219.47h-12l6-18.5zm-9.26-2h6.52l-3.26-10.03z" stroke="#d916a8" stroke-width=".05" fill="#d916a8"/><path d="M1558.04 345h-38.58" stroke="#3a414a" stroke-width="2" fill="none"/><path d="M1559.04 346H1558v-2h1.04z" stroke="#3a414a" stroke-width=".05" fill="#3a414a"/><path d="M1504.2 345l14.26-4.64v9.28z" stroke="#3a414a" stroke-width="2" fill="#3a414a"/><path d="M1160 1046.38a6 6 0 0 1 6-6h148a6 6 0 0 1 6 6v108a6 6 0 0 1-6 6h-148a6 6 0 0 1-6-6z" stroke="#3a414a" stroke-width="2" fill="#fff"/><g><use xlink:href="#av" transform="matrix(1,0,0,1,1172,1052.3809523809523) translate(8.03086419753086 26.77777777777778)"/><use xlink:href="#aw" transform="matrix(1,0,0,1,1172,1052.3809523809523) translate(65.43827160493828 26.77777777777778)"/><use xlink:href="#ax" transform="matrix(1,0,0,1,1172,1052.3809523809523) translate(109.45061728395062 26.77777777777778)"/><use xlink:href="#ay" transform="matrix(1,0,0,1,1172,1052.3809523809523) translate(22.382716049382722 53.44444444444445)"/><use xlink:href="#az" transform="matrix(1,0,0,1,1172,1052.3809523809523) translate(75.46913580246914 53.44444444444445)"/><use xlink:href="#aA" transform="matrix(1,0,0,1,1172,1052.3809523809523) translate(40.31481481481482 80.11111111111111)"/></g><path d="M1240 1162.34V1244a6 6 0 0 1-6 6h-158a6 6 0 0 1-6-6v-24.53" stroke="#d916a8" stroke-width="2" fill="none"/><path d="M1241 1162.37h-2v-1.03h2z" stroke="#d916a8" stroke-width=".05" fill="#d916a8"/><path d="M1070 1204.2l4.64 14.27h-9.28z" stroke="#d916a8" stroke-width="2" fill="#d916a8"/><path d="M1240 1021.96v-.46" stroke="#3a414a" stroke-width="2" fill="none"/><path d="M1241 1022h-2v-1.04h2z" stroke="#3a414a" stroke-width=".05" fill="#3a414a"/><path d="M1240 1036.76l-4.64-14.26h9.28z" stroke="#3a414a" stroke-width="2" fill="#3a414a"/><path d="M680-220c26.56 19.92 43.36 19.92 53.28 19.92 16 0 37.28-19.92 53.28-19.92 10.08 0 26.72 0 53.44 19.92V-100c-26.72-20.04-43.36-20.04-53.44-20.04-16 0-37.28 20.04-53.28 20.04-9.92 0-26.72 0-53.28-20.04z" stroke="#e81313" stroke-width="2" fill="#fff"/><g><use xlink:href="#aB" transform="matrix(1,0,0,1,685,-215) translate(24.537037037037038 45.27777777777778)"/><use xlink:href="#aC" transform="matrix(1,0,0,1,685,-215) translate(92.19135802469135 45.27777777777778)"/><use xlink:href="#aD" transform="matrix(1,0,0,1,685,-215) translate(36.79012345679013 71.94444444444446)"/></g><path d="M1344.75 1101.38h-22.8v-2h22.8zm636.18-5.94l-.27 1.1-.42 1.02-.57.94-.72.83-.83.72-.94.57-1.02.42-1.06.26-1.06.08H1468.9v-2h505.06l.82-.06.76-.2.73-.3.67-.4.6-.5.5-.6.4-.67.3-.72.2-.73.04-848.62h2zm-5.87-1277.7l1.1.27 1.02.43.94.57.83.7.72.85.57.94.42 1 .26 1.07.08 1.06-.02 400.62h-2l.02-400.54-.06-.82-.2-.76-.3-.72-.4-.67-.5-.6-.6-.5-.67-.42-.73-.3-.72-.16-1115.32-.07v-2z" stroke="#e81313" stroke-width=".05" fill="#e81313"/><path d="M1322 1101.38h-1.04v-2h1.03z" fill="#e81313"/><path d="M1322 1101.4h-1.06v-2.04h1.07zm-1-2v1.96h.96v-1.95z" stroke="#e81313" stroke-width=".05" fill="#e81313"/><path d="M858.5-176.7l-14.26-4.63 14.26-4.64z" fill="#e81313"/><path d="M859.5-175.32l-18.5-6 18.5-6.03zm-12.03-6l10.03 3.25v-6.52z" stroke="#e81313" stroke-width=".05" fill="#e81313"/><g><use xlink:href="#aE" transform="matrix(1,0,0,1,1344.7544658276731,1079.047619047619) translate(0.005000000000002558 14.222222222222223)"/><use xlink:href="#aF" transform="matrix(1,0,0,1,1344.7544658276731,1079.047619047619) translate(64.05438271604939 14.222222222222223)"/><use xlink:href="#aG" transform="matrix(1,0,0,1,1344.7544658276731,1079.047619047619) translate(85.68401234567904 14.222222222222223)"/><use xlink:href="#aH" transform="matrix(1,0,0,1,1344.7544658276731,1079.047619047619) translate(42.869197530864206 35.55555555555556)"/></g><path d="M1835.2 288.6a8 8 0 0 1 9.6 0l70.4 52.8a4.5 4.5 0 0 1 0 7.2l-70.4 52.8a8 8 0 0 1-9.6 0l-70.4-52.8a4.5 4.5 0 0 1 0-7.2z" stroke="#3a414a" stroke-width="2" fill="#fff"/><g><use xlink:href="#aI" transform="matrix(1,0,0,1,1765,290) translate(35.838333333333345 40.0625)"/><use xlink:href="#aJ" transform="matrix(1,0,0,1,1765,290) translate(30.616111111111113 64.0625)"/><use xlink:href="#aK" transform="matrix(1,0,0,1,1765,290) translate(55.807469135802485 79.17361111111111)"/></g><path d="M1265.8 230.14V244a6 6 0 0 0 6 6H1834a6 6 0 0 1 6 6v11.5" stroke="#d916a8" stroke-width="2" fill="none"/><path d="M1266.8 230.17h-2v-.5l2-1.06z" stroke="#d916a8" stroke-width=".05" fill="#d916a8"/><path d="M1840 282.76l-4.64-14.26h9.28z" stroke="#d916a8" stroke-width="2" fill="#d916a8"/><path d="M1841 1244.04l-.08 1.06-.26 1.06-.42 1.02-.57.94-.72.83-.83.72-.94.57-1.02.42-1.1.27-759.1.07-1.06-.08-1.06-.26-1.02-.42-.94-.57-.83-.72-.72-.83-.57-.94-.42-1.02-.27-1.1-.07-25.6h2l.07 25.36.18.72.3.73.4.67.52.6.6.5.66.4.73.3.76.2.82.06 758.78-.07.72-.18.73-.3.67-.4.6-.52.5-.6.4-.66.3-.73.2-.76.06-.82V405h2z" stroke="#d916a8" stroke-width=".05" fill="#d916a8"/><path d="M1840 404l1-.06v1.1h-2v-1.1z" fill="#d916a8"/><path d="M1840 403.98l1.03-.07v1.15h-2.06v-1.14zm-.97 1.02h1.94v-1.04l-.97.07-.97-.07z" stroke="#d916a8" stroke-width=".05" fill="#d916a8"/><path d="M1074.64 1218.47h-9.28l4.64-14.27z" fill="#d916a8"/><path d="M1076 1219.47h-12l6-18.5zm-9.26-2h6.52l-3.26-10.03z" stroke="#d916a8" stroke-width=".05" fill="#d916a8"/><path d="M1958.93 340.06l-.27 1.1-.42 1.02-.57.94-.7.83-.85.72-.94.57-1 .42-1.08.26-1.06.08H1919v-2h32.96l.83-.06.75-.2.72-.3.67-.4.6-.5.5-.6.42-.67.3-.73.17-.72v-93.24h2zm-5.87-501l1.1.28 1.02.42.94.57.84.72.7.83.58.94.42 1.02.26 1.06.08 1.06-.05 379.3h-2l.05-379.22-.06-.82-.18-.76-.3-.73-.4-.67-.52-.6-.6-.5-.67-.4-.72-.3-.73-.2L859.5-159v-2z" stroke="#e81313" stroke-width=".05" fill="#e81313"/><path d="M1919.03 346h-1.12l.1-1-.1-1h1.13z" fill="#e81313"/><path d="M1919.05 346.02h-1.17l.1-1.02-.1-1.02h1.17zm-1.1-2l.08.98-.1.98h1.07v-1.96z" stroke="#e81313" stroke-width=".05" fill="#e81313"/><path d="M858.5-155.36L844.24-160l14.26-4.64z" fill="#e81313"/><path d="M859.5-154l-18.5-6 18.5-6zm-12.03-6l10.03 3.26v-6.52z" stroke="#e81313" stroke-width=".05" fill="#e81313"/><g><use xlink:href="#aL" transform="matrix(1,0,0,1,1898.8684704651268,225.2460834523489) translate(0 14.222222222222223)"/><use xlink:href="#aM" transform="matrix(1,0,0,1,1898.8684704651268,225.2460834523489) translate(58.17283950617285 14.222222222222223)"/></g><defs><path fill="#3a414a" d="M185-189c-5-48-123-54-124 2 14 75 158 14 163 119 3 78-121 87-175 55-17-10-28-26-33-46l33-7c5 56 141 63 141-1 0-78-155-14-162-118-5-82 145-84 179-34 5 7 8 16 11 25" id="aN"/><path fill="#3a414a" d="M59-47c-2 24 18 29 38 22v24C64 9 27 4 27-40v-127H5v-23h24l9-43h21v43h35v23H59v120" id="aO"/><path fill="#3a414a" d="M141-36C126-15 110 5 73 4 37 3 15-17 15-53c-1-64 63-63 125-63 3-35-9-54-41-54-24 1-41 7-42 31l-33-3c5-37 33-52 76-52 45 0 72 20 72 64v82c-1 20 7 32 28 27v20c-31 9-61-2-59-35zM48-53c0 20 12 33 32 33 41-3 63-29 60-74-43 2-92-5-92 41" id="aP"/><path fill="#3a414a" d="M114-163C36-179 61-72 57 0H25l-1-190h30c1 12-1 29 2 39 6-27 23-49 58-41v29" id="aQ"/><g id="a"><use transform="matrix(0.06172839506172839,0,0,0.06172839506172839,0,0)" xlink:href="#aN"/><use transform="matrix(0.06172839506172839,0,0,0.06172839506172839,14.814814814814813,0)" xlink:href="#aO"/><use transform="matrix(0.06172839506172839,0,0,0.06172839506172839,20.98765432098765,0)" xlink:href="#aP"/><use transform="matrix(0.06172839506172839,0,0,0.06172839506172839,33.33333333333333,0)" xlink:href="#aQ"/><use transform="matrix(0.06172839506172839,0,0,0.06172839506172839,40.679012345679006,0)" xlink:href="#aO"/></g><path fill="#3a414a" d="M232-93c-1 65-40 97-104 97C67 4 28-28 28-90v-158h33c8 89-33 224 67 224 102 0 64-133 71-224h33v155" id="aR"/><path fill="#3a414a" d="M205 0l-28-72H64L36 0H1l101-248h38L239 0h-34zm-38-99l-47-123c-12 45-31 82-46 123h93" id="aS"/><path fill="#3a414a" d="M233-177c-1 41-23 64-60 70L243 0h-38l-65-103H63V0H30v-248c88 3 205-21 203 71zM63-129c60-2 137 13 137-47 0-61-80-42-137-45v92" id="aT"/><path fill="#3a414a" d="M127-220V0H93v-220H8v-28h204v28h-85" id="aU"/><g id="b"><use transform="matrix(0.06172839506172839,0,0,0.06172839506172839,0,0)" xlink:href="#aR"/><use transform="matrix(0.06172839506172839,0,0,0.06172839506172839,15.987654320987653,0)" xlink:href="#aS"/><use transform="matrix(0.06172839506172839,0,0,0.06172839506172839,30.80246913580247,0)" xlink:href="#aT"/><use transform="matrix(0.06172839506172839,0,0,0.06172839506172839,46.358024691358025,0)" xlink:href="#aU"/></g><path fill="#3a414a" d="M160-131c35 5 61 23 61 61C221 17 115-2 30 0v-248c76 3 177-17 177 60 0 33-19 50-47 57zm-97-11c50-1 110 9 110-42 0-47-63-36-110-37v79zm0 115c55-2 124 14 124-45 0-56-70-42-124-44v89" id="aV"/><path fill="#3a414a" d="M100-194c63 0 86 42 84 106H49c0 40 14 67 53 68 26 1 43-12 49-29l28 8c-11 28-37 45-77 45C44 4 14-33 15-96c1-61 26-98 85-98zm52 81c6-60-76-77-97-28-3 7-6 17-6 28h103" id="aW"/><path fill="#3a414a" d="M177-190C167-65 218 103 67 71c-23-6-38-20-44-43l32-5c15 47 100 32 89-28v-30C133-14 115 1 83 1 29 1 15-40 15-95c0-56 16-97 71-98 29-1 48 16 59 35 1-10 0-23 2-32h30zM94-22c36 0 50-32 50-73 0-42-14-75-50-75-39 0-46 34-46 75s6 73 46 73" id="aX"/><path fill="#3a414a" d="M24-231v-30h32v30H24zM24 0v-190h32V0H24" id="aY"/><path fill="#3a414a" d="M117-194c89-4 53 116 60 194h-32v-121c0-31-8-49-39-48C34-167 62-67 57 0H25l-1-190h30c1 10-1 24 2 32 11-22 29-35 61-36" id="aZ"/><g id="c"><use transform="matrix(0.06172839506172839,0,0,0.06172839506172839,0,0)" xlink:href="#aV"/><use transform="matrix(0.06172839506172839,0,0,0.06172839506172839,14.814814814814813,0)" xlink:href="#aW"/><use transform="matrix(0.06172839506172839,0,0,0.06172839506172839,27.160493827160494,0)" xlink:href="#aX"/><use transform="matrix(0.06172839506172839,0,0,0.06172839506172839,39.50617283950617,0)" xlink:href="#aY"/><use transform="matrix(0.06172839506172839,0,0,0.06172839506172839,44.382716049382715,0)" xlink:href="#aZ"/></g><path fill="#3a414a" d="M30-248c118-7 216 8 213 122C240-48 200 0 122 0H30v-248zM63-27c89 8 146-16 146-99s-60-101-146-95v194" id="ba"/><g id="d"><use transform="matrix(0.06172839506172839,0,0,0.06172839506172839,0,0)" xlink:href="#aN"/><use transform="matrix(0.06172839506172839,0,0,0.06172839506172839,14.814814814814813,0)" xlink:href="#ba"/></g><path fill="#3a414a" d="M212-179c-10-28-35-45-73-45-59 0-87 40-87 99 0 60 29 101 89 101 43 0 62-24 78-52l27 14C228-24 195 4 139 4 59 4 22-46 18-125c-6-104 99-153 187-111 19 9 31 26 39 46" id="bb"/><path fill="#3a414a" d="M85-194c31 0 48 13 60 33l-1-100h32l1 261h-30c-2-10 0-23-3-31C134-8 116 4 85 4 32 4 16-35 15-94c0-66 23-100 70-100zm9 24c-40 0-46 34-46 75 0 40 6 74 45 74 42 0 51-32 51-76 0-42-9-74-50-73" id="bc"/><g id="e"><use transform="matrix(0.06172839506172839,0,0,0.06172839506172839,0,0)" xlink:href="#bb"/><use transform="matrix(0.06172839506172839,0,0,0.06172839506172839,15.987654320987653,0)" xlink:href="#aP"/><use transform="matrix(0.06172839506172839,0,0,0.06172839506172839,28.333333333333332,0)" xlink:href="#aQ"/><use transform="matrix(0.06172839506172839,0,0,0.06172839506172839,35.67901234567901,0)" xlink:href="#bc"/></g><path fill="#3a414a" d="M27 0v-27h64v-190l-56 39v-29l58-41h29v221h61V0H27" id="bd"/><path fill="#3a414a" d="M33 0v-38h34V0H33" id="be"/><g id="f"><use transform="matrix(0.06172839506172839,0,0,0.06172839506172839,0,0)" xlink:href="#bd"/><use transform="matrix(0.06172839506172839,0,0,0.06172839506172839,12.345679012345679,0)" xlink:href="#be"/><use transform="matrix(0.06172839506172839,0,0,0.06172839506172839,18.51851851851852,0)" xlink:href="#aN"/><use transform="matrix(0.06172839506172839,0,0,0.06172839506172839,33.33333333333333,0)" xlink:href="#aO"/><use transform="matrix(0.06172839506172839,0,0,0.06172839506172839,39.50617283950617,0)" xlink:href="#aP"/><use transform="matrix(0.06172839506172839,0,0,0.06172839506172839,51.85185185185185,0)" xlink:href="#aQ"/><use transform="matrix(0.06172839506172839,0,0,0.06172839506172839,59.197530864197525,0)" xlink:href="#aO"/></g><g id="g"><use transform="matrix(0.06172839506172839,0,0,0.06172839506172839,0,0)" xlink:href="#aN"/><use transform="matrix(0.06172839506172839,0,0,0.06172839506172839,14.814814814814813,0)" xlink:href="#ba"/></g><g id="h"><use transform="matrix(0.06172839506172839,0,0,0.06172839506172839,0,0)" xlink:href="#bb"/><use transform="matrix(0.06172839506172839,0,0,0.06172839506172839,15.987654320987653,0)" xlink:href="#aP"/><use transform="matrix(0.06172839506172839,0,0,0.06172839506172839,28.333333333333332,0)" xlink:href="#aQ"/><use transform="matrix(0.06172839506172839,0,0,0.06172839506172839,35.67901234567901,0)" xlink:href="#bc"/><use transform="matrix(0.06172839506172839,0,0,0.06172839506172839,48.02469135802469,0)" xlink:href="#be"/></g><path fill="#3a414a" d="M101-251c82-7 93 87 43 132L82-64C71-53 59-42 53-27h129V0H18c2-99 128-94 128-182 0-28-16-43-45-43s-46 15-49 41l-32-3c6-41 34-60 81-64" id="bf"/><path fill="#3a414a" d="M84 4C-5 8 30-112 23-190h32v120c0 31 7 50 39 49 72-2 45-101 50-169h31l1 190h-30c-1-10 1-25-2-33-11 22-28 36-60 37" id="bg"/><path fill="#3a414a" d="M24 0v-261h32V0H24" id="bh"/><g id="i"><use transform="matrix(0.06172839506172839,0,0,0.06172839506172839,0,0)" xlink:href="#bf"/><use transform="matrix(0.06172839506172839,0,0,0.06172839506172839,12.345679012345679,0)" xlink:href="#be"/><use transform="matrix(0.06172839506172839,0,0,0.06172839506172839,18.51851851851852,0)" xlink:href="#aV"/><use transform="matrix(0.06172839506172839,0,0,0.06172839506172839,33.33333333333333,0)" xlink:href="#bg"/><use transform="matrix(0.06172839506172839,0,0,0.06172839506172839,45.679012345679006,0)" xlink:href="#aY"/><use transform="matrix(0.06172839506172839,0,0,0.06172839506172839,50.55555555555555,0)" xlink:href="#bh"/><use transform="matrix(0.06172839506172839,0,0,0.06172839506172839,55.432098765432094,0)" xlink:href="#bc"/></g><path fill="#3a414a" d="M106-169C34-169 62-67 57 0H25v-261h32l-1 103c12-21 28-36 61-36 89 0 53 116 60 194h-32v-121c2-32-8-49-39-48" id="bi"/><g id="j"><use transform="matrix(0.06172839506172839,0,0,0.06172839506172839,0,0)" xlink:href="#aO"/><use transform="matrix(0.06172839506172839,0,0,0.06172839506172839,6.172839506172839,0)" xlink:href="#bi"/><use transform="matrix(0.06172839506172839,0,0,0.06172839506172839,18.51851851851852,0)" xlink:href="#aW"/></g><g id="k"><use transform="matrix(0.06172839506172839,0,0,0.06172839506172839,0,0)" xlink:href="#aN"/><use transform="matrix(0.06172839506172839,0,0,0.06172839506172839,14.814814814814813,0)" xlink:href="#ba"/></g><path fill="#3a414a" d="M63-220v92h138v28H63V0H30v-248h175v28H63" id="bj"/><g id="l"><use transform="matrix(0.06172839506172839,0,0,0.06172839506172839,0,0)" xlink:href="#bj"/><use transform="matrix(0.06172839506172839,0,0,0.06172839506172839,13.518518518518517,0)" xlink:href="#aY"/><use transform="matrix(0.06172839506172839,0,0,0.06172839506172839,18.39506172839506,0)" xlink:href="#bh"/><use transform="matrix(0.06172839506172839,0,0,0.06172839506172839,23.2716049382716,0)" xlink:href="#aW"/><use transform="matrix(0.06172839506172839,0,0,0.06172839506172839,35.61728395061728,0)" xlink:href="#be"/></g><path fill="#3a414a" d="M126-127c33 6 58 20 58 59 0 88-139 92-164 29-3-8-5-16-6-25l32-3c6 27 21 44 54 44 32 0 52-15 52-46 0-38-36-46-79-43v-28c39 1 72-4 72-42 0-27-17-43-46-43-28 0-47 15-49 41l-32-3c6-42 35-63 81-64 48-1 79 21 79 65 0 36-21 52-52 59" id="bk"/><path fill="#3a414a" d="M266 0h-40l-56-210L115 0H75L2-248h35L96-30l15-64 43-154h32l59 218 59-218h35" id="bl"/><g id="m"><use transform="matrix(0.06172839506172839,0,0,0.06172839506172839,0,0)" xlink:href="#bk"/><use transform="matrix(0.06172839506172839,0,0,0.06172839506172839,12.345679012345679,0)" xlink:href="#be"/><use transform="matrix(0.06172839506172839,0,0,0.06172839506172839,18.51851851851852,0)" xlink:href="#bl"/><use transform="matrix(0.06172839506172839,0,0,0.06172839506172839,39.01234567901234,0)" xlink:href="#aQ"/><use transform="matrix(0.06172839506172839,0,0,0.06172839506172839,46.35802469135802,0)" xlink:href="#aY"/><use transform="matrix(0.06172839506172839,0,0,0.06172839506172839,51.23456790123456,0)" xlink:href="#aO"/><use transform="matrix(0.06172839506172839,0,0,0.06172839506172839,57.407407407407405,0)" xlink:href="#aW"/></g><path fill="#3a414a" d="M137 0h-34L2-248h35l83 218 83-218h36" id="bm"/><g id="n"><use transform="matrix(0.06172839506172839,0,0,0.06172839506172839,0,0)" xlink:href="#bb"/><use transform="matrix(0.06172839506172839,0,0,0.06172839506172839,15.987654320987653,0)" xlink:href="#aN"/><use transform="matrix(0.06172839506172839,0,0,0.06172839506172839,30.80246913580247,0)" xlink:href="#bm"/></g><g id="o"><use transform="matrix(0.06172839506172839,0,0,0.06172839506172839,0,0)" xlink:href="#bi"/><use transform="matrix(0.06172839506172839,0,0,0.06172839506172839,12.345679012345679,0)" xlink:href="#aW"/><use transform="matrix(0.06172839506172839,0,0,0.06172839506172839,24.691358024691358,0)" xlink:href="#aP"/><use transform="matrix(0.06172839506172839,0,0,0.06172839506172839,37.03703703703704,0)" xlink:href="#bc"/><use transform="matrix(0.06172839506172839,0,0,0.06172839506172839,49.382716049382715,0)" xlink:href="#aW"/><use transform="matrix(0.06172839506172839,0,0,0.06172839506172839,61.72839506172839,0)" xlink:href="#aQ"/><use transform="matrix(0.06172839506172839,0,0,0.06172839506172839,67.8395061728395,0)" xlink:href="#be"/></g><path fill="#3a414a" d="M135-143c-3-34-86-38-87 0 15 53 115 12 119 90S17 21 10-45l28-5c4 36 97 45 98 0-10-56-113-15-118-90-4-57 82-63 122-42 12 7 21 19 24 35" id="bn"/><path fill="#3a414a" d="M100-194c62-1 85 37 85 99 1 63-27 99-86 99S16-35 15-95c0-66 28-99 85-99zM99-20c44 1 53-31 53-75 0-43-8-75-51-75s-53 32-53 75 10 74 51 75" id="bo"/><g id="q"><use transform="matrix(0.06172839506172839,0,0,0.06172839506172839,0,0)" xlink:href="#aN"/><use transform="matrix(0.06172839506172839,0,0,0.06172839506172839,14.814814814814813,0)" xlink:href="#aW"/><use transform="matrix(0.06172839506172839,0,0,0.06172839506172839,27.160493827160494,0)" xlink:href="#aZ"/><use transform="matrix(0.06172839506172839,0,0,0.06172839506172839,39.50617283950617,0)" xlink:href="#bn"/><use transform="matrix(0.06172839506172839,0,0,0.06172839506172839,50.61728395061728,0)" xlink:href="#bo"/><use transform="matrix(0.06172839506172839,0,0,0.06172839506172839,62.962962962962955,0)" xlink:href="#aQ"/><use transform="matrix(0.06172839506172839,0,0,0.06172839506172839,70.30864197530863,0)" xlink:href="#bn"/></g><g id="r"><use transform="matrix(0.06172839506172839,0,0,0.06172839506172839,0,0)" xlink:href="#bd"/><use transform="matrix(0.06172839506172839,0,0,0.06172839506172839,12.345679012345679,0)" xlink:href="#be"/><use transform="matrix(0.06172839506172839,0,0,0.06172839506172839,18.51851851851852,0)" xlink:href="#bb"/><use transform="matrix(0.06172839506172839,0,0,0.06172839506172839,34.50617283950617,0)" xlink:href="#bh"/><use transform="matrix(0.06172839506172839,0,0,0.06172839506172839,39.382716049382715,0)" xlink:href="#aW"/><use transform="matrix(0.06172839506172839,0,0,0.06172839506172839,51.72839506172839,0)" xlink:href="#aP"/><use transform="matrix(0.06172839506172839,0,0,0.06172839506172839,64.07407407407408,0)" xlink:href="#aQ"/><path fill="#8080ff" d="M-1.1 1.54h73.63v1.63H-1.1z"/></g><g id="s"><use transform="matrix(0.06172839506172839,0,0,0.06172839506172839,0,0)" xlink:href="#bc"/><use transform="matrix(0.06172839506172839,0,0,0.06172839506172839,12.345679012345679,0)" xlink:href="#aP"/><use transform="matrix(0.06172839506172839,0,0,0.06172839506172839,24.691358024691358,0)" xlink:href="#aO"/><use transform="matrix(0.06172839506172839,0,0,0.06172839506172839,30.864197530864196,0)" xlink:href="#aP"/></g><path fill="#3a414a" d="M96-169c-40 0-48 33-48 73s9 75 48 75c24 0 41-14 43-38l32 2c-6 37-31 61-74 61-59 0-76-41-82-99-10-93 101-131 147-64 4 7 5 14 7 22l-32 3c-4-21-16-35-41-35" id="bp"/><g id="t"><use transform="matrix(0.06172839506172839,0,0,0.06172839506172839,0,0)" xlink:href="#bn"/><use transform="matrix(0.06172839506172839,0,0,0.06172839506172839,11.11111111111111,0)" xlink:href="#aO"/><use transform="matrix(0.06172839506172839,0,0,0.06172839506172839,17.28395061728395,0)" xlink:href="#aQ"/><use transform="matrix(0.06172839506172839,0,0,0.06172839506172839,24.629629629629626,0)" xlink:href="#bg"/><use transform="matrix(0.06172839506172839,0,0,0.06172839506172839,36.9753086419753,0)" xlink:href="#bp"/><use transform="matrix(0.06172839506172839,0,0,0.06172839506172839,48.08641975308642,0)" xlink:href="#aO"/></g><g id="u"><use transform="matrix(0.06172839506172839,0,0,0.06172839506172839,0,0)" xlink:href="#bf"/><use transform="matrix(0.06172839506172839,0,0,0.06172839506172839,12.345679012345679,0)" xlink:href="#be"/></g><path fill="#3a414a" d="M33 0v-248h34V0H33" id="bq"/><g id="v"><use transform="matrix(0.06172839506172839,0,0,0.06172839506172839,0,0)" xlink:href="#bq"/><use transform="matrix(0.06172839506172839,0,0,0.06172839506172839,6.172839506172839,0)" xlink:href="#aZ"/><use transform="matrix(0.06172839506172839,0,0,0.06172839506172839,18.51851851851852,0)" xlink:href="#aY"/><use transform="matrix(0.06172839506172839,0,0,0.06172839506172839,23.395061728395063,0)" xlink:href="#aO"/></g><g id="w"><use transform="matrix(0.06172839506172839,0,0,0.06172839506172839,0,0)" xlink:href="#aT"/><use transform="matrix(0.06172839506172839,0,0,0.06172839506172839,15.555555555555555,0)" xlink:href="#aU"/><use transform="matrix(0.06172839506172839,0,0,0.06172839506172839,29.074074074074073,0)" xlink:href="#bb"/><use transform="matrix(0.06172839506172839,0,0,0.06172839506172839,45.06172839506173,0)" xlink:href="#be"/></g><g id="x"><use transform="matrix(0.06172839506172839,0,0,0.06172839506172839,0,0)" xlink:href="#bk"/><use transform="matrix(0.06172839506172839,0,0,0.06172839506172839,12.345679012345679,0)" xlink:href="#be"/></g><path fill="#3a414a" d="M190 0L58-211 59 0H30v-248h39L202-35l-2-213h31V0h-41" id="br"/><path fill="#3a414a" d="M99-251c64 0 84 50 84 122C183-37 130 33 47-8c-14-7-20-23-25-40l30-5c6 39 69 39 84 7 9-19 16-44 16-74-10 22-31 35-62 35-49 0-73-33-73-83 0-54 28-83 82-83zm-1 141c31-1 51-18 51-49 0-36-14-67-51-67-34 0-49 23-49 58 0 34 15 58 49 58" id="bs"/><g id="y"><use transform="matrix(0.06172839506172839,0,0,0.06172839506172839,0,0)" xlink:href="#bq"/><use transform="matrix(0.06172839506172839,0,0,0.06172839506172839,6.172839506172839,0)" xlink:href="#br"/><use transform="matrix(0.06172839506172839,0,0,0.06172839506172839,22.160493827160494,0)" xlink:href="#aS"/><use transform="matrix(0.06172839506172839,0,0,0.06172839506172839,36.9753086419753,0)" xlink:href="#bf"/><use transform="matrix(0.06172839506172839,0,0,0.06172839506172839,49.32098765432098,0)" xlink:href="#bd"/><use transform="matrix(0.06172839506172839,0,0,0.06172839506172839,61.66666666666666,0)" xlink:href="#bs"/><use transform="matrix(0.06172839506172839,0,0,0.06172839506172839,74.01234567901234,0)" xlink:href="#be"/></g><path fill="#3a414a" d="M155-56V0h-30v-56H8v-25l114-167h33v167h35v25h-35zm-30-156c-27 46-58 90-88 131h88v-131" id="bt"/><g id="z"><use transform="matrix(0.06172839506172839,0,0,0.06172839506172839,0,0)" xlink:href="#bt"/><use transform="matrix(0.06172839506172839,0,0,0.06172839506172839,12.345679012345679,0)" xlink:href="#be"/></g><g id="A"><use transform="matrix(0.06172839506172839,0,0,0.06172839506172839,0,0)" xlink:href="#bq"/><use transform="matrix(0.06172839506172839,0,0,0.06172839506172839,6.172839506172839,0)" xlink:href="#aZ"/><use transform="matrix(0.06172839506172839,0,0,0.06172839506172839,18.51851851851852,0)" xlink:href="#aY"/><use transform="matrix(0.06172839506172839,0,0,0.06172839506172839,23.395061728395063,0)" xlink:href="#aO"/></g><path fill="#3a414a" d="M134-131c28 9 52 24 51 62-1 50-34 73-85 73S17-19 16-69c0-36 21-54 49-61-75-25-45-126 34-121 46 3 78 18 79 63 0 33-17 51-44 57zm-34-11c31 1 46-15 46-44 0-28-17-43-47-42-29 0-46 13-45 42 1 28 16 44 46 44zm1 122c35 0 51-18 51-52 0-30-18-46-53-46-33 0-51 17-51 47 0 34 19 51 53 51" id="bu"/><path fill="#3a414a" d="M101-251c68 0 85 55 85 127S166 4 100 4C33 4 14-52 14-124c0-73 17-127 87-127zm-1 229c47 0 54-49 54-102s-4-102-53-102c-51 0-55 48-55 102 0 53 5 102 54 102" id="bv"/><g id="B"><use transform="matrix(0.06172839506172839,0,0,0.06172839506172839,0,0)" xlink:href="#ba"/><use transform="matrix(0.06172839506172839,0,0,0.06172839506172839,15.987654320987653,0)" xlink:href="#aN"/><use transform="matrix(0.06172839506172839,0,0,0.06172839506172839,30.80246913580247,0)" xlink:href="#bd"/><use transform="matrix(0.06172839506172839,0,0,0.06172839506172839,43.148148148148145,0)" xlink:href="#bu"/><use transform="matrix(0.06172839506172839,0,0,0.06172839506172839,55.49382716049382,0)" xlink:href="#aV"/><use transform="matrix(0.06172839506172839,0,0,0.06172839506172839,70.30864197530863,0)" xlink:href="#bf"/><use transform="matrix(0.06172839506172839,0,0,0.06172839506172839,82.65432098765432,0)" xlink:href="#bv"/></g><path fill="#3a414a" d="M54-142c48-35 137-8 131 61C196 18 31 33 14-55l32-4c7 23 22 37 52 37 35-1 51-22 54-58 4-55-73-65-99-34H22l8-134h141v27H59" id="bw"/><g id="C"><use transform="matrix(0.06172839506172839,0,0,0.06172839506172839,0,0)" xlink:href="#bw"/><use transform="matrix(0.06172839506172839,0,0,0.06172839506172839,12.345679012345679,0)" xlink:href="#be"/></g><path fill="#3a414a" d="M197 0v-115H63V0H30v-248h33v105h134v-105h34V0h-34" id="bx"/><path fill="#3a414a" d="M195 0l-74-108L45 0H8l94-129-87-119h37l69 98 67-98h37l-84 118L233 0h-38" id="by"/><g id="D"><use transform="matrix(0.06172839506172839,0,0,0.06172839506172839,0,0)" xlink:href="#aN"/><use transform="matrix(0.06172839506172839,0,0,0.06172839506172839,14.814814814814813,0)" xlink:href="#bx"/><use transform="matrix(0.06172839506172839,0,0,0.06172839506172839,30.80246913580247,0)" xlink:href="#aU"/><use transform="matrix(0.06172839506172839,0,0,0.06172839506172839,44.32098765432099,0)" xlink:href="#bt"/><use transform="matrix(0.06172839506172839,0,0,0.06172839506172839,56.666666666666664,0)" xlink:href="#by"/></g><path fill="#3a414a" d="M110-160c48 1 74 30 74 79 0 53-28 85-80 85-65 0-83-55-86-122-5-90 50-162 133-122 14 7 22 21 27 39l-31 6c-5-40-67-38-82-6-9 19-15 44-15 74 11-20 30-34 60-33zm-7 138c34 0 49-23 49-58s-16-56-50-56c-29 0-50 16-49 49 1 36 15 65 50 65" id="bz"/><g id="E"><use transform="matrix(0.06172839506172839,0,0,0.06172839506172839,0,0)" xlink:href="#bz"/><use transform="matrix(0.06172839506172839,0,0,0.06172839506172839,12.345679012345679,0)" xlink:href="#be"/></g><path fill="#3a414a" d="M240 0l2-218c-23 76-54 145-80 218h-23L58-218 59 0H30v-248h44l77 211c21-75 51-140 76-211h43V0h-30" id="bA"/><path fill="#3a414a" d="M30-248c87 1 191-15 191 75 0 78-77 80-158 76V0H30v-248zm33 125c57 0 124 11 124-50 0-59-68-47-124-48v98" id="bB"/><g id="F"><use transform="matrix(0.06172839506172839,0,0,0.06172839506172839,0,0)" xlink:href="#bA"/><use transform="matrix(0.06172839506172839,0,0,0.06172839506172839,18.456790123456788,0)" xlink:href="#bB"/><use transform="matrix(0.06172839506172839,0,0,0.06172839506172839,33.2716049382716,0)" xlink:href="#aR"/><use transform="matrix(0.06172839506172839,0,0,0.06172839506172839,49.25925925925925,0)" xlink:href="#bz"/><use transform="matrix(0.06172839506172839,0,0,0.06172839506172839,61.60493827160493,0)" xlink:href="#bv"/><use transform="matrix(0.06172839506172839,0,0,0.06172839506172839,73.9506172839506,0)" xlink:href="#bw"/><use transform="matrix(0.06172839506172839,0,0,0.06172839506172839,86.29629629629629,0)" xlink:href="#bv"/></g><path fill="#3a414a" d="M64 0c3-98 48-159 88-221H18v-27h164v26C143-157 98-101 97 0H64" id="bC"/><g id="G"><use transform="matrix(0.06172839506172839,0,0,0.06172839506172839,0,0)" xlink:href="#bC"/><use transform="matrix(0.06172839506172839,0,0,0.06172839506172839,12.345679012345679,0)" xlink:href="#be"/></g><g id="H"><use transform="matrix(0.06172839506172839,0,0,0.06172839506172839,0,0)" xlink:href="#br"/><use transform="matrix(0.06172839506172839,0,0,0.06172839506172839,15.987654320987653,0)" xlink:href="#aU"/><use transform="matrix(0.06172839506172839,0,0,0.06172839506172839,29.50617283950617,0)" xlink:href="#bb"/></g><path fill="#3a414a" d="M210-169c-67 3-38 105-44 169h-31v-121c0-29-5-50-35-48C34-165 62-65 56 0H25l-1-190h30c1 10-1 24 2 32 10-44 99-50 107 0 11-21 27-35 58-36 85-2 47 119 55 194h-31v-121c0-29-5-49-35-48" id="bD"/><g id="I"><use transform="matrix(0.06172839506172839,0,0,0.06172839506172839,0,0)" xlink:href="#aU"/><use transform="matrix(0.06172839506172839,0,0,0.06172839506172839,13.518518518518517,0)" xlink:href="#bi"/><use transform="matrix(0.06172839506172839,0,0,0.06172839506172839,25.864197530864196,0)" xlink:href="#aW"/><use transform="matrix(0.06172839506172839,0,0,0.06172839506172839,38.20987654320987,0)" xlink:href="#aQ"/><use transform="matrix(0.06172839506172839,0,0,0.06172839506172839,45.55555555555555,0)" xlink:href="#bD"/><use transform="matrix(0.06172839506172839,0,0,0.06172839506172839,64.01234567901234,0)" xlink:href="#aY"/><use transform="matrix(0.06172839506172839,0,0,0.06172839506172839,68.88888888888889,0)" xlink:href="#bn"/><use transform="matrix(0.06172839506172839,0,0,0.06172839506172839,80,0)" xlink:href="#aO"/><use transform="matrix(0.06172839506172839,0,0,0.06172839506172839,86.17283950617283,0)" xlink:href="#bo"/><use transform="matrix(0.06172839506172839,0,0,0.06172839506172839,98.51851851851852,0)" xlink:href="#aQ"/><use transform="matrix(0.06172839506172839,0,0,0.06172839506172839,105.8641975308642,0)" xlink:href="#bn"/></g><g id="J"><use transform="matrix(0.06172839506172839,0,0,0.06172839506172839,0,0)" xlink:href="#aS"/><use transform="matrix(0.06172839506172839,0,0,0.06172839506172839,14.814814814814813,0)" xlink:href="#ba"/><use transform="matrix(0.06172839506172839,0,0,0.06172839506172839,30.80246913580247,0)" xlink:href="#bb"/><use transform="matrix(0.06172839506172839,0,0,0.06172839506172839,46.79012345679012,0)" xlink:href="#be"/></g><g id="K"><use transform="matrix(0.06172839506172839,0,0,0.06172839506172839,0,0)" xlink:href="#bu"/><use transform="matrix(0.06172839506172839,0,0,0.06172839506172839,12.345679012345679,0)" xlink:href="#be"/></g><g id="L"><use transform="matrix(0.06172839506172839,0,0,0.06172839506172839,0,0)" xlink:href="#bb"/><use transform="matrix(0.06172839506172839,0,0,0.06172839506172839,15.987654320987653,0)" xlink:href="#bg"/><use transform="matrix(0.06172839506172839,0,0,0.06172839506172839,28.333333333333332,0)" xlink:href="#aQ"/><use transform="matrix(0.06172839506172839,0,0,0.06172839506172839,35.67901234567901,0)" xlink:href="#aQ"/><use transform="matrix(0.06172839506172839,0,0,0.06172839506172839,43.02469135802469,0)" xlink:href="#aW"/><use transform="matrix(0.06172839506172839,0,0,0.06172839506172839,55.37037037037037,0)" xlink:href="#aZ"/><use transform="matrix(0.06172839506172839,0,0,0.06172839506172839,67.71604938271605,0)" xlink:href="#aO"/></g><g id="M"><use transform="matrix(0.06172839506172839,0,0,0.06172839506172839,0,0)" xlink:href="#aS"/><use transform="matrix(0.06172839506172839,0,0,0.06172839506172839,14.814814814814813,0)" xlink:href="#ba"/><use transform="matrix(0.06172839506172839,0,0,0.06172839506172839,30.80246913580247,0)" xlink:href="#bb"/><use transform="matrix(0.06172839506172839,0,0,0.06172839506172839,46.79012345679012,0)" xlink:href="#be"/></g><path fill="#3a414a" d="M101-234c-31-9-42 10-38 44h38v23H63V0H32v-167H5v-23h27c-7-52 17-82 69-68v24" id="bE"/><path fill="#3a414a" d="M179-190L93 31C79 59 56 82 12 73V49c39 6 53-20 64-50L1-190h34L92-34l54-156h33" id="bF"/><g id="N"><use transform="matrix(0.06172839506172839,0,0,0.06172839506172839,0,0)" xlink:href="#aN"/><use transform="matrix(0.06172839506172839,0,0,0.06172839506172839,14.814814814814813,0)" xlink:href="#aP"/><use transform="matrix(0.06172839506172839,0,0,0.06172839506172839,27.160493827160494,0)" xlink:href="#bE"/><use transform="matrix(0.06172839506172839,0,0,0.06172839506172839,33.333333333333336,0)" xlink:href="#aW"/><use transform="matrix(0.06172839506172839,0,0,0.06172839506172839,45.67901234567901,0)" xlink:href="#aO"/><use transform="matrix(0.06172839506172839,0,0,0.06172839506172839,51.851851851851855,0)" xlink:href="#bF"/></g><g id="O"><use transform="matrix(0.06172839506172839,0,0,0.06172839506172839,0,0)" xlink:href="#aV"/><use transform="matrix(0.06172839506172839,0,0,0.06172839506172839,14.814814814814813,0)" xlink:href="#bg"/><use transform="matrix(0.06172839506172839,0,0,0.06172839506172839,27.160493827160494,0)" xlink:href="#aO"/><use transform="matrix(0.06172839506172839,0,0,0.06172839506172839,33.333333333333336,0)" xlink:href="#aO"/><use transform="matrix(0.06172839506172839,0,0,0.06172839506172839,39.50617283950618,0)" xlink:href="#bo"/><use transform="matrix(0.06172839506172839,0,0,0.06172839506172839,51.851851851851855,0)" xlink:href="#aZ"/></g><path fill="#3a414a" d="M87 75C49 33 22-17 22-94c0-76 28-126 65-167h31c-38 41-64 92-64 168S80 34 118 75H87" id="bG"/><path fill="#3a414a" d="M143 4C61 4 22-44 18-125c-5-107 100-154 193-111 17 8 29 25 37 43l-32 9c-13-25-37-40-76-40-61 0-88 39-88 99 0 61 29 100 91 101 35 0 62-11 79-27v-45h-74v-28h105v86C228-13 192 4 143 4" id="bH"/><path fill="#3a414a" d="M33-261c38 41 65 92 65 168S71 34 33 75H2C39 34 66-17 66-93S39-220 2-261h31" id="bI"/><g id="P"><use transform="matrix(0.06172839506172839,0,0,0.06172839506172839,0,0)" xlink:href="#bG"/><use transform="matrix(0.06172839506172839,0,0,0.06172839506172839,7.345679012345679,0)" xlink:href="#bH"/><use transform="matrix(0.06172839506172839,0,0,0.06172839506172839,24.629629629629626,0)" xlink:href="#aQ"/><use transform="matrix(0.06172839506172839,0,0,0.06172839506172839,31.9753086419753,0)" xlink:href="#aW"/><use transform="matrix(0.06172839506172839,0,0,0.06172839506172839,44.32098765432098,0)" xlink:href="#aW"/><use transform="matrix(0.06172839506172839,0,0,0.06172839506172839,56.66666666666666,0)" xlink:href="#aZ"/><use transform="matrix(0.06172839506172839,0,0,0.06172839506172839,69.01234567901234,0)" xlink:href="#bI"/></g><path fill="#333" d="M24-248c93 1 206-16 204 79-1 75-69 88-152 82V0H24v-248zm52 121c47 0 100 7 100-41 0-47-54-39-100-39v80" id="bJ"/><path fill="#333" d="M240-174c0 40-23 61-54 70L253 0h-59l-57-94H76V0H24v-248c93 4 217-23 216 74zM76-134c48-2 112 12 112-38 0-48-66-32-112-35v73" id="bK"/><path fill="#333" d="M24 0v-248h195v40H76v63h132v40H76v65h150V0H24" id="bL"/><path fill="#333" d="M169-182c-1-43-94-46-97-3 18 66 151 10 154 114 3 95-165 93-204 36-6-8-10-19-12-30l50-8c3 46 112 56 116 5-17-69-150-10-154-114-4-87 153-88 188-35 5 8 8 18 10 28" id="bM"/><path fill="#333" d="M24-248c120-7 223 5 221 122C244-46 201 0 124 0H24v-248zM76-40c74 7 117-18 117-86 0-67-45-88-117-82v168" id="bN"/><g id="Q"><use transform="matrix(0.04938271604938272,0,0,0.04938271604938272,0,0)" xlink:href="#bJ"/><use transform="matrix(0.04938271604938272,0,0,0.04938271604938272,11.851851851851853,0)" xlink:href="#bK"/><use transform="matrix(0.04938271604938272,0,0,0.04938271604938272,24.641975308641978,0)" xlink:href="#bL"/><use transform="matrix(0.04938271604938272,0,0,0.04938271604938272,36.49382716049383,0)" xlink:href="#bM"/><use transform="matrix(0.04938271604938272,0,0,0.04938271604938272,48.345679012345684,0)" xlink:href="#bM"/><use transform="matrix(0.04938271604938272,0,0,0.04938271604938272,60.19753086419754,0)" xlink:href="#bL"/><use transform="matrix(0.04938271604938272,0,0,0.04938271604938272,72.0493827160494,0)" xlink:href="#bN"/></g><path fill="#e81313" d="M175 0L67-191c6 58 2 128 3 191H24v-248h59L193-55c-6-58-2-129-3-193h46V0h-61" id="bO"/><path fill="#e81313" d="M140-251c80 0 125 45 125 126S219 4 139 4C58 4 15-44 15-125s44-126 125-126zm-1 214c52 0 73-35 73-88 0-50-21-86-72-86-52 0-73 35-73 86s22 88 72 88" id="bP"/><path fill="#e81313" d="M136-208V0H84v-208H4v-40h212v40h-80" id="bQ"/><g id="R"><use transform="matrix(0.04938271604938272,0,0,0.04938271604938272,0,0)" xlink:href="#bO"/><use transform="matrix(0.04938271604938272,0,0,0.04938271604938272,12.790123456790125,0)" xlink:href="#bP"/><use transform="matrix(0.04938271604938272,0,0,0.04938271604938272,26.617283950617285,0)" xlink:href="#bQ"/></g><path fill="#e81313" d="M24-248c93 1 206-16 204 79-1 75-69 88-152 82V0H24v-248zm52 121c47 0 100 7 100-41 0-47-54-39-100-39v80" id="bR"/><path fill="#e81313" d="M240-174c0 40-23 61-54 70L253 0h-59l-57-94H76V0H24v-248c93 4 217-23 216 74zM76-134c48-2 112 12 112-38 0-48-66-32-112-35v73" id="bS"/><path fill="#e81313" d="M24 0v-248h195v40H76v63h132v40H76v65h150V0H24" id="bT"/><path fill="#e81313" d="M169-182c-1-43-94-46-97-3 18 66 151 10 154 114 3 95-165 93-204 36-6-8-10-19-12-30l50-8c3 46 112 56 116 5-17-69-150-10-154-114-4-87 153-88 188-35 5 8 8 18 10 28" id="bU"/><path fill="#e81313" d="M24-248c120-7 223 5 221 122C244-46 201 0 124 0H24v-248zM76-40c74 7 117-18 117-86 0-67-45-88-117-82v168" id="bV"/><g id="S"><use transform="matrix(0.04938271604938272,0,0,0.04938271604938272,0,0)" xlink:href="#bR"/><use transform="matrix(0.04938271604938272,0,0,0.04938271604938272,11.851851851851853,0)" xlink:href="#bS"/><use transform="matrix(0.04938271604938272,0,0,0.04938271604938272,24.641975308641978,0)" xlink:href="#bT"/><use transform="matrix(0.04938271604938272,0,0,0.04938271604938272,36.49382716049383,0)" xlink:href="#bU"/><use transform="matrix(0.04938271604938272,0,0,0.04938271604938272,48.345679012345684,0)" xlink:href="#bU"/><use transform="matrix(0.04938271604938272,0,0,0.04938271604938272,60.19753086419754,0)" xlink:href="#bT"/><use transform="matrix(0.04938271604938272,0,0,0.04938271604938272,72.0493827160494,0)" xlink:href="#bV"/></g><path fill="#3a414a" d="M30 0v-248h187v28H63v79h144v27H63v87h162V0H30" id="bW"/><g id="T"><use transform="matrix(0.06172839506172839,0,0,0.06172839506172839,0,0)" xlink:href="#bW"/><use transform="matrix(0.06172839506172839,0,0,0.06172839506172839,14.814814814814813,0)" xlink:href="#aZ"/><use transform="matrix(0.06172839506172839,0,0,0.06172839506172839,27.160493827160494,0)" xlink:href="#bc"/></g><g id="U"><use transform="matrix(0.06172839506172839,0,0,0.06172839506172839,0,0)" xlink:href="#bA"/><use transform="matrix(0.06172839506172839,0,0,0.06172839506172839,18.456790123456788,0)" xlink:href="#aS"/><use transform="matrix(0.06172839506172839,0,0,0.06172839506172839,33.2716049382716,0)" xlink:href="#bq"/><use transform="matrix(0.06172839506172839,0,0,0.06172839506172839,39.44444444444444,0)" xlink:href="#br"/></g><path fill="#3a414a" d="M30 0v-248h33v221h125V0H30" id="bX"/><path fill="#3a414a" d="M140-251c81 0 123 46 123 126C263-46 219 4 140 4 59 4 17-45 17-125s42-126 123-126zm0 227c63 0 89-41 89-101s-29-99-89-99c-61 0-89 39-89 99S79-25 140-24" id="bY"/><g id="V"><use transform="matrix(0.06172839506172839,0,0,0.06172839506172839,0,0)" xlink:href="#bX"/><use transform="matrix(0.06172839506172839,0,0,0.06172839506172839,12.345679012345679,0)" xlink:href="#bY"/><use transform="matrix(0.06172839506172839,0,0,0.06172839506172839,29.629629629629626,0)" xlink:href="#bY"/><use transform="matrix(0.06172839506172839,0,0,0.06172839506172839,46.913580246913575,0)" xlink:href="#bB"/></g><g id="W"><use transform="matrix(0.055555555555555546,0,0,0.055555555555555546,0,0)" xlink:href="#bW"/><use transform="matrix(0.055555555555555546,0,0,0.055555555555555546,13.33333333333333,0)" xlink:href="#aN"/><use transform="matrix(0.055555555555555546,0,0,0.055555555555555546,26.66666666666666,0)" xlink:href="#aU"/><use transform="matrix(0.055555555555555546,0,0,0.055555555555555546,38.444444444444436,0)" xlink:href="#bY"/><use transform="matrix(0.055555555555555546,0,0,0.055555555555555546,53.999999999999986,0)" xlink:href="#bB"/></g><path fill="#3a414a" d="M115-194c55 1 70 41 70 98S169 2 115 4C84 4 66-9 55-30l1 105H24l-1-265h31l2 30c10-21 28-34 59-34zm-8 174c40 0 45-34 45-75s-6-73-45-74c-42 0-51 32-51 76 0 43 10 73 51 73" id="bZ"/><g id="X"><use transform="matrix(0.02469135802469134,0,0,0.02469135802469134,0,0)" xlink:href="#bG"/><use transform="matrix(0.02469135802469134,0,0,0.02469135802469134,2.9382716049382696,0)" xlink:href="#aY"/><use transform="matrix(0.02469135802469134,0,0,0.02469135802469134,4.888888888888886,0)" xlink:href="#aZ"/><use transform="matrix(0.02469135802469134,0,0,0.02469135802469134,9.827160493827154,0)" xlink:href="#aO"/><use transform="matrix(0.02469135802469134,0,0,0.02469135802469134,12.296296296296289,0)" xlink:href="#aW"/><use transform="matrix(0.02469135802469134,0,0,0.02469135802469134,17.234567901234556,0)" xlink:href="#aQ"/><use transform="matrix(0.02469135802469134,0,0,0.02469135802469134,20.172839506172824,0)" xlink:href="#aQ"/><use transform="matrix(0.02469135802469134,0,0,0.02469135802469134,23.111111111111093,0)" xlink:href="#bg"/><use transform="matrix(0.02469135802469134,0,0,0.02469135802469134,28.04938271604936,0)" xlink:href="#bZ"/><use transform="matrix(0.02469135802469134,0,0,0.02469135802469134,32.98765432098763,0)" xlink:href="#aO"/><use transform="matrix(0.02469135802469134,0,0,0.02469135802469134,35.45679012345676,0)" xlink:href="#bI"/></g><g id="Y"><use transform="matrix(0.04938271604938272,0,0,0.04938271604938272,0,0)" xlink:href="#bT"/><use transform="matrix(0.04938271604938272,0,0,0.04938271604938272,11.851851851851853,0)" xlink:href="#bU"/><use transform="matrix(0.04938271604938272,0,0,0.04938271604938272,23.703703703703706,0)" xlink:href="#bQ"/><use transform="matrix(0.04938271604938272,0,0,0.04938271604938272,34.17283950617284,0)" xlink:href="#bP"/><use transform="matrix(0.04938271604938272,0,0,0.04938271604938272,48,0)" xlink:href="#bR"/></g><g id="Z"><use transform="matrix(0.06172839506172839,0,0,0.06172839506172839,0,0)" xlink:href="#bB"/><use transform="matrix(0.06172839506172839,0,0,0.06172839506172839,14.814814814814813,0)" xlink:href="#bo"/><use transform="matrix(0.06172839506172839,0,0,0.06172839506172839,27.160493827160494,0)" xlink:href="#bh"/><use transform="matrix(0.06172839506172839,0,0,0.06172839506172839,32.03703703703704,0)" xlink:href="#bh"/></g><g id="aa"><use transform="matrix(0.06172839506172839,0,0,0.06172839506172839,0,0)" xlink:href="#aN"/><use transform="matrix(0.06172839506172839,0,0,0.06172839506172839,14.814814814814813,0)" xlink:href="#aW"/><use transform="matrix(0.06172839506172839,0,0,0.06172839506172839,27.160493827160494,0)" xlink:href="#aZ"/><use transform="matrix(0.06172839506172839,0,0,0.06172839506172839,39.50617283950617,0)" xlink:href="#bn"/><use transform="matrix(0.06172839506172839,0,0,0.06172839506172839,50.61728395061728,0)" xlink:href="#bo"/><use transform="matrix(0.06172839506172839,0,0,0.06172839506172839,62.962962962962955,0)" xlink:href="#aQ"/><use transform="matrix(0.06172839506172839,0,0,0.06172839506172839,70.30864197530863,0)" xlink:href="#bn"/></g><path fill="#3a414a" d="M108 0H70L1-190h34L89-25l56-165h34" id="ca"/><g id="ab"><use transform="matrix(0.06172839506172839,0,0,0.06172839506172839,0,0)" xlink:href="#aS"/><use transform="matrix(0.06172839506172839,0,0,0.06172839506172839,14.382716049382715,0)" xlink:href="#ca"/><use transform="matrix(0.06172839506172839,0,0,0.06172839506172839,25.493827160493826,0)" xlink:href="#aW"/><use transform="matrix(0.06172839506172839,0,0,0.06172839506172839,37.839506172839506,0)" xlink:href="#aQ"/><use transform="matrix(0.06172839506172839,0,0,0.06172839506172839,45.18518518518518,0)" xlink:href="#aP"/><use transform="matrix(0.06172839506172839,0,0,0.06172839506172839,57.53086419753086,0)" xlink:href="#aX"/><use transform="matrix(0.06172839506172839,0,0,0.06172839506172839,69.87654320987654,0)" xlink:href="#aW"/></g><g id="ac"><use transform="matrix(0.06172839506172839,0,0,0.06172839506172839,0,0)" xlink:href="#bH"/><use transform="matrix(0.06172839506172839,0,0,0.06172839506172839,17.28395061728395,0)" xlink:href="#aW"/><use transform="matrix(0.06172839506172839,0,0,0.06172839506172839,29.629629629629626,0)" xlink:href="#aO"/></g><g id="ad"><use transform="matrix(0.06172839506172839,0,0,0.06172839506172839,0,0)" xlink:href="#aS"/><use transform="matrix(0.06172839506172839,0,0,0.06172839506172839,14.382716049382715,0)" xlink:href="#ca"/><use transform="matrix(0.06172839506172839,0,0,0.06172839506172839,25.493827160493826,0)" xlink:href="#aW"/><use transform="matrix(0.06172839506172839,0,0,0.06172839506172839,37.839506172839506,0)" xlink:href="#aQ"/><use transform="matrix(0.06172839506172839,0,0,0.06172839506172839,45.18518518518518,0)" xlink:href="#aP"/><use transform="matrix(0.06172839506172839,0,0,0.06172839506172839,57.53086419753086,0)" xlink:href="#aX"/><use transform="matrix(0.06172839506172839,0,0,0.06172839506172839,69.87654320987654,0)" xlink:href="#aW"/></g><g id="ae"><use transform="matrix(0.06172839506172839,0,0,0.06172839506172839,0,0)" xlink:href="#bd"/><use transform="matrix(0.06172839506172839,0,0,0.06172839506172839,12.345679012345679,0)" xlink:href="#be"/><use transform="matrix(0.06172839506172839,0,0,0.06172839506172839,18.51851851851852,0)" xlink:href="#aU"/><use transform="matrix(0.06172839506172839,0,0,0.06172839506172839,32.03703703703704,0)" xlink:href="#bi"/><use transform="matrix(0.06172839506172839,0,0,0.06172839506172839,44.382716049382715,0)" xlink:href="#aW"/><use transform="matrix(0.06172839506172839,0,0,0.06172839506172839,56.72839506172839,0)" xlink:href="#aQ"/><use transform="matrix(0.06172839506172839,0,0,0.06172839506172839,64.07407407407408,0)" xlink:href="#bD"/><use transform="matrix(0.06172839506172839,0,0,0.06172839506172839,82.53086419753086,0)" xlink:href="#aY"/><use transform="matrix(0.06172839506172839,0,0,0.06172839506172839,87.4074074074074,0)" xlink:href="#bn"/><use transform="matrix(0.06172839506172839,0,0,0.06172839506172839,98.51851851851852,0)" xlink:href="#aO"/><use transform="matrix(0.06172839506172839,0,0,0.06172839506172839,104.69135802469135,0)" xlink:href="#bo"/><use transform="matrix(0.06172839506172839,0,0,0.06172839506172839,117.03703703703704,0)" xlink:href="#aQ"/><use transform="matrix(0.06172839506172839,0,0,0.06172839506172839,124.38271604938272,0)" xlink:href="#bn"/></g><g id="af"><use transform="matrix(0.06172839506172839,0,0,0.06172839506172839,0,0)" xlink:href="#bf"/><use transform="matrix(0.06172839506172839,0,0,0.06172839506172839,12.345679012345679,0)" xlink:href="#be"/><use transform="matrix(0.06172839506172839,0,0,0.06172839506172839,18.51851851851852,0)" xlink:href="#bb"/><use transform="matrix(0.06172839506172839,0,0,0.06172839506172839,34.50617283950617,0)" xlink:href="#bg"/><use transform="matrix(0.06172839506172839,0,0,0.06172839506172839,46.85185185185185,0)" xlink:href="#aQ"/><use transform="matrix(0.06172839506172839,0,0,0.06172839506172839,54.197530864197525,0)" xlink:href="#aQ"/><use transform="matrix(0.06172839506172839,0,0,0.06172839506172839,61.5432098765432,0)" xlink:href="#aW"/><use transform="matrix(0.06172839506172839,0,0,0.06172839506172839,73.88888888888889,0)" xlink:href="#aZ"/><use transform="matrix(0.06172839506172839,0,0,0.06172839506172839,86.23456790123457,0)" xlink:href="#aO"/><use transform="matrix(0.06172839506172839,0,0,0.06172839506172839,92.4074074074074,0)" xlink:href="#bn"/></g><g id="ag"><use transform="matrix(0.06172839506172839,0,0,0.06172839506172839,0,0)" xlink:href="#bq"/><use transform="matrix(0.06172839506172839,0,0,0.06172839506172839,6.172839506172839,0)" xlink:href="#br"/><use transform="matrix(0.06172839506172839,0,0,0.06172839506172839,22.160493827160494,0)" xlink:href="#aS"/><use transform="matrix(0.06172839506172839,0,0,0.06172839506172839,36.9753086419753,0)" xlink:href="#bf"/><use transform="matrix(0.06172839506172839,0,0,0.06172839506172839,49.32098765432098,0)" xlink:href="#bd"/><use transform="matrix(0.06172839506172839,0,0,0.06172839506172839,61.66666666666666,0)" xlink:href="#bs"/></g><g id="ah"><use transform="matrix(0.06172839506172839,0,0,0.06172839506172839,0,0)" xlink:href="#ba"/><use transform="matrix(0.06172839506172839,0,0,0.06172839506172839,15.987654320987653,0)" xlink:href="#aN"/><use transform="matrix(0.06172839506172839,0,0,0.06172839506172839,30.80246913580247,0)" xlink:href="#bd"/><use transform="matrix(0.06172839506172839,0,0,0.06172839506172839,43.148148148148145,0)" xlink:href="#bu"/><use transform="matrix(0.06172839506172839,0,0,0.06172839506172839,55.49382716049382,0)" xlink:href="#aV"/><use transform="matrix(0.06172839506172839,0,0,0.06172839506172839,70.30864197530863,0)" xlink:href="#bf"/><use transform="matrix(0.06172839506172839,0,0,0.06172839506172839,82.65432098765432,0)" xlink:href="#bv"/></g><g id="ai"><use transform="matrix(0.06172839506172839,0,0,0.06172839506172839,0,0)" xlink:href="#aT"/><use transform="matrix(0.06172839506172839,0,0,0.06172839506172839,15.987654320987653,0)" xlink:href="#bo"/><use transform="matrix(0.06172839506172839,0,0,0.06172839506172839,28.333333333333332,0)" xlink:href="#bh"/><use transform="matrix(0.06172839506172839,0,0,0.06172839506172839,33.20987654320987,0)" xlink:href="#bh"/><use transform="matrix(0.06172839506172839,0,0,0.06172839506172839,38.08641975308642,0)" xlink:href="#aY"/><use transform="matrix(0.06172839506172839,0,0,0.06172839506172839,42.96296296296296,0)" xlink:href="#aZ"/><use transform="matrix(0.06172839506172839,0,0,0.06172839506172839,55.30864197530864,0)" xlink:href="#aX"/></g><path fill="#3a414a" d="M141 0L90-78 38 0H4l68-98-65-92h35l48 74 47-74h35l-64 92 68 98h-35" id="cb"/><g id="aj"><use transform="matrix(0.06172839506172839,0,0,0.06172839506172839,0,0)" xlink:href="#bq"/><use transform="matrix(0.06172839506172839,0,0,0.06172839506172839,6.172839506172839,0)" xlink:href="#aZ"/><use transform="matrix(0.06172839506172839,0,0,0.06172839506172839,18.51851851851852,0)" xlink:href="#bc"/><use transform="matrix(0.06172839506172839,0,0,0.06172839506172839,30.864197530864196,0)" xlink:href="#aW"/><use transform="matrix(0.06172839506172839,0,0,0.06172839506172839,43.20987654320987,0)" xlink:href="#cb"/></g><path fill="#3a414a" d="M18-150v-26h174v26H18zm0 90v-26h174v26H18" id="cc"/><use transform="matrix(0.06172839506172839,0,0,0.06172839506172839,0,0)" xlink:href="#cc" id="ak"/><path fill="#3a414a" d="M26 75v-336h71v23H56V52h41v23H26" id="cd"/><path fill="#3a414a" d="M3 75V52h41v-290H3v-23h71V75H3" id="ce"/><g id="al"><use transform="matrix(0.06172839506172839,0,0,0.06172839506172839,0,0)" xlink:href="#by"/><use transform="matrix(0.06172839506172839,0,0,0.06172839506172839,14.814814814814813,0)" xlink:href="#cd"/><use transform="matrix(0.06172839506172839,0,0,0.06172839506172839,20.98765432098765,0)" xlink:href="#bw"/><use transform="matrix(0.06172839506172839,0,0,0.06172839506172839,33.33333333333333,0)" xlink:href="#ce"/></g><g id="am"><use transform="matrix(0.049382716049382706,0,0,0.049382716049382706,0,0)" xlink:href="#bW"/><use transform="matrix(0.049382716049382706,0,0,0.049382716049382706,11.85185185185185,0)" xlink:href="#ca"/><use transform="matrix(0.049382716049382706,0,0,0.049382716049382706,20.740740740740737,0)" xlink:href="#aW"/><use transform="matrix(0.049382716049382706,0,0,0.049382716049382706,30.617283950617278,0)" xlink:href="#aQ"/><use transform="matrix(0.049382716049382706,0,0,0.049382716049382706,36.49382716049382,0)" xlink:href="#bF"/></g><use transform="matrix(0.049382716049382706,0,0,0.049382716049382706,0,0)" xlink:href="#by" id="an"/><path fill="#3a414a" d="M68-38c1 34 0 65-14 84H32c9-13 17-26 17-46H33v-38h35" id="cf"/><g id="ao"><use transform="matrix(0.049382716049382706,0,0,0.049382716049382706,0,0)" xlink:href="#bn"/><use transform="matrix(0.049382716049382706,0,0,0.049382716049382706,8.888888888888888,0)" xlink:href="#aW"/><use transform="matrix(0.049382716049382706,0,0,0.049382716049382706,18.76543209876543,0)" xlink:href="#bp"/><use transform="matrix(0.049382716049382706,0,0,0.049382716049382706,27.654320987654316,0)" xlink:href="#bo"/><use transform="matrix(0.049382716049382706,0,0,0.049382716049382706,37.53086419753086,0)" xlink:href="#aZ"/><use transform="matrix(0.049382716049382706,0,0,0.049382716049382706,47.407407407407405,0)" xlink:href="#bc"/><use transform="matrix(0.049382716049382706,0,0,0.049382716049382706,57.28395061728395,0)" xlink:href="#bn"/><use transform="matrix(0.049382716049382706,0,0,0.049382716049382706,66.17283950617283,0)" xlink:href="#cf"/></g><g id="ap"><use transform="matrix(0.049382716049382706,0,0,0.049382716049382706,0,0)" xlink:href="#ba"/><use transform="matrix(0.049382716049382706,0,0,0.049382716049382706,12.790123456790122,0)" xlink:href="#aN"/><use transform="matrix(0.049382716049382706,0,0,0.049382716049382706,24.64197530864197,0)" xlink:href="#bd"/><use transform="matrix(0.049382716049382706,0,0,0.049382716049382706,34.51851851851851,0)" xlink:href="#bu"/><use transform="matrix(0.049382716049382706,0,0,0.049382716049382706,44.39506172839505,0)" xlink:href="#aV"/><use transform="matrix(0.049382716049382706,0,0,0.049382716049382706,56.24691358024689,0)" xlink:href="#bf"/><use transform="matrix(0.049382716049382706,0,0,0.049382716049382706,66.12345679012344,0)" xlink:href="#bv"/></g><path fill="#3a414a" d="M16-82v-28h88v28H16" id="cg"/><g id="aq"><use transform="matrix(0.049382716049382706,0,0,0.049382716049382706,0,0)" xlink:href="#aP"/><use transform="matrix(0.049382716049382706,0,0,0.049382716049382706,9.87654320987654,0)" xlink:href="#bg"/><use transform="matrix(0.049382716049382706,0,0,0.049382716049382706,19.75308641975308,0)" xlink:href="#aO"/><use transform="matrix(0.049382716049382706,0,0,0.049382716049382706,24.691358024691354,0)" xlink:href="#bo"/><use transform="matrix(0.049382716049382706,0,0,0.049382716049382706,34.5679012345679,0)" xlink:href="#cg"/><use transform="matrix(0.049382716049382706,0,0,0.049382716049382706,40.44444444444444,0)" xlink:href="#bg"/><use transform="matrix(0.049382716049382706,0,0,0.049382716049382706,50.32098765432099,0)" xlink:href="#bZ"/><use transform="matrix(0.049382716049382706,0,0,0.049382716049382706,60.19753086419753,0)" xlink:href="#bc"/><use transform="matrix(0.049382716049382706,0,0,0.049382716049382706,70.07407407407408,0)" xlink:href="#aP"/><use transform="matrix(0.049382716049382706,0,0,0.049382716049382706,79.95061728395062,0)" xlink:href="#aO"/><use transform="matrix(0.049382716049382706,0,0,0.049382716049382706,84.88888888888889,0)" xlink:href="#aW"/><use transform="matrix(0.049382716049382706,0,0,0.049382716049382706,94.76543209876543,0)" xlink:href="#bn"/><use transform="matrix(0.049382716049382706,0,0,0.049382716049382706,103.65432098765433,0)" xlink:href="#be"/></g><path fill="#3a414a" d="M115-194c53 0 69 39 70 98 0 66-23 100-70 100C84 3 66-7 56-30L54 0H23l1-261h32v101c10-23 28-34 59-34zm-8 174c40 0 45-34 45-75 0-40-5-75-45-74-42 0-51 32-51 76 0 43 10 73 51 73" id="ch"/><path fill="#3a414a" d="M143 0L79-87 56-68V0H24v-261h32v163l83-92h37l-77 82L181 0h-38" id="ci"/><g id="ar"><use transform="matrix(0.049382716049382706,0,0,0.049382716049382706,0,0)" xlink:href="#bG"/><use transform="matrix(0.049382716049382706,0,0,0.049382716049382706,5.876543209876542,0)" xlink:href="#aZ"/><use transform="matrix(0.049382716049382706,0,0,0.049382716049382706,15.75308641975308,0)" xlink:href="#bo"/><use transform="matrix(0.049382716049382706,0,0,0.049382716049382706,25.629629629629626,0)" xlink:href="#aZ"/><use transform="matrix(0.049382716049382706,0,0,0.049382716049382706,35.50617283950616,0)" xlink:href="#cg"/><use transform="matrix(0.049382716049382706,0,0,0.049382716049382706,41.38271604938271,0)" xlink:href="#ch"/><use transform="matrix(0.049382716049382706,0,0,0.049382716049382706,51.25925925925925,0)" xlink:href="#bh"/><use transform="matrix(0.049382716049382706,0,0,0.049382716049382706,55.16049382716049,0)" xlink:href="#bo"/><use transform="matrix(0.049382716049382706,0,0,0.049382716049382706,65.03703703703702,0)" xlink:href="#bp"/><use transform="matrix(0.049382716049382706,0,0,0.049382716049382706,73.92592592592591,0)" xlink:href="#ci"/><use transform="matrix(0.049382716049382706,0,0,0.049382716049382706,82.8148148148148,0)" xlink:href="#aY"/><use transform="matrix(0.049382716049382706,0,0,0.049382716049382706,86.71604938271602,0)" xlink:href="#aZ"/><use transform="matrix(0.049382716049382706,0,0,0.049382716049382706,96.59259259259257,0)" xlink:href="#aX"/><use transform="matrix(0.049382716049382706,0,0,0.049382716049382706,106.46913580246911,0)" xlink:href="#bI"/></g><g id="as"><use transform="matrix(0.06172839506172839,0,0,0.06172839506172839,0,0)" xlink:href="#aS"/><use transform="matrix(0.06172839506172839,0,0,0.06172839506172839,14.382716049382715,0)" xlink:href="#ca"/><use transform="matrix(0.06172839506172839,0,0,0.06172839506172839,25.493827160493826,0)" xlink:href="#aW"/><use transform="matrix(0.06172839506172839,0,0,0.06172839506172839,37.839506172839506,0)" xlink:href="#aQ"/><use transform="matrix(0.06172839506172839,0,0,0.06172839506172839,45.18518518518518,0)" xlink:href="#aP"/><use transform="matrix(0.06172839506172839,0,0,0.06172839506172839,57.53086419753086,0)" xlink:href="#aX"/><use transform="matrix(0.06172839506172839,0,0,0.06172839506172839,69.87654320987654,0)" xlink:href="#aW"/></g><g id="at"><use transform="matrix(0.06172839506172839,0,0,0.06172839506172839,0,0)" xlink:href="#aT"/><use transform="matrix(0.06172839506172839,0,0,0.06172839506172839,15.987654320987653,0)" xlink:href="#bo"/><use transform="matrix(0.06172839506172839,0,0,0.06172839506172839,28.333333333333332,0)" xlink:href="#bh"/><use transform="matrix(0.06172839506172839,0,0,0.06172839506172839,33.20987654320987,0)" xlink:href="#bh"/><use transform="matrix(0.06172839506172839,0,0,0.06172839506172839,38.08641975308642,0)" xlink:href="#aY"/><use transform="matrix(0.06172839506172839,0,0,0.06172839506172839,42.96296296296296,0)" xlink:href="#aZ"/><use transform="matrix(0.06172839506172839,0,0,0.06172839506172839,55.30864197530864,0)" xlink:href="#aX"/></g><g id="au"><use transform="matrix(0.06172839506172839,0,0,0.06172839506172839,0,0)" xlink:href="#bq"/><use transform="matrix(0.06172839506172839,0,0,0.06172839506172839,6.172839506172839,0)" xlink:href="#aZ"/><use transform="matrix(0.06172839506172839,0,0,0.06172839506172839,18.51851851851852,0)" xlink:href="#bc"/><use transform="matrix(0.06172839506172839,0,0,0.06172839506172839,30.864197530864196,0)" xlink:href="#aW"/><use transform="matrix(0.06172839506172839,0,0,0.06172839506172839,43.20987654320987,0)" xlink:href="#cb"/></g><g id="av"><use transform="matrix(0.06172839506172839,0,0,0.06172839506172839,0,0)" xlink:href="#bl"/><use transform="matrix(0.06172839506172839,0,0,0.06172839506172839,20.493827160493826,0)" xlink:href="#aQ"/><use transform="matrix(0.06172839506172839,0,0,0.06172839506172839,27.839506172839506,0)" xlink:href="#aY"/><use transform="matrix(0.06172839506172839,0,0,0.06172839506172839,32.71604938271605,0)" xlink:href="#aO"/><use transform="matrix(0.06172839506172839,0,0,0.06172839506172839,38.88888888888889,0)" xlink:href="#aW"/></g><g id="aw"><use transform="matrix(0.06172839506172839,0,0,0.06172839506172839,0,0)" xlink:href="#aS"/><use transform="matrix(0.06172839506172839,0,0,0.06172839506172839,14.382716049382715,0)" xlink:href="#ca"/><use transform="matrix(0.06172839506172839,0,0,0.06172839506172839,25.493827160493826,0)" xlink:href="#aX"/></g><g id="ax"><use transform="matrix(0.06172839506172839,0,0,0.06172839506172839,0,0)" xlink:href="#aO"/><use transform="matrix(0.06172839506172839,0,0,0.06172839506172839,6.172839506172839,0)" xlink:href="#bo"/></g><g id="ay"><use transform="matrix(0.06172839506172839,0,0,0.06172839506172839,0,0)" xlink:href="#bX"/><use transform="matrix(0.06172839506172839,0,0,0.06172839506172839,12.345679012345679,0)" xlink:href="#bY"/><use transform="matrix(0.06172839506172839,0,0,0.06172839506172839,29.629629629629626,0)" xlink:href="#bH"/></g><g id="az"><use transform="matrix(0.06172839506172839,0,0,0.06172839506172839,0,0)" xlink:href="#bG"/><use transform="matrix(0.06172839506172839,0,0,0.06172839506172839,7.345679012345679,0)" xlink:href="#aN"/><use transform="matrix(0.06172839506172839,0,0,0.06172839506172839,22.160493827160494,0)" xlink:href="#ba"/></g><g id="aA"><use transform="matrix(0.06172839506172839,0,0,0.06172839506172839,0,0)" xlink:href="#bb"/><use transform="matrix(0.06172839506172839,0,0,0.06172839506172839,15.987654320987653,0)" xlink:href="#aP"/><use transform="matrix(0.06172839506172839,0,0,0.06172839506172839,28.333333333333332,0)" xlink:href="#aQ"/><use transform="matrix(0.06172839506172839,0,0,0.06172839506172839,35.67901234567901,0)" xlink:href="#bc"/><use transform="matrix(0.06172839506172839,0,0,0.06172839506172839,48.02469135802469,0)" xlink:href="#bI"/></g><g id="aB"><use transform="matrix(0.06172839506172839,0,0,0.06172839506172839,0,0)" xlink:href="#aU"/><use transform="matrix(0.06172839506172839,0,0,0.06172839506172839,13.518518518518517,0)" xlink:href="#aR"/><use transform="matrix(0.06172839506172839,0,0,0.06172839506172839,29.50617283950617,0)" xlink:href="#aT"/><use transform="matrix(0.06172839506172839,0,0,0.06172839506172839,45.49382716049382,0)" xlink:href="#br"/></g><g id="aC"><use transform="matrix(0.06172839506172839,0,0,0.06172839506172839,0,0)" xlink:href="#bY"/><use transform="matrix(0.06172839506172839,0,0,0.06172839506172839,17.28395061728395,0)" xlink:href="#br"/></g><g id="aD"><use transform="matrix(0.06172839506172839,0,0,0.06172839506172839,0,0)" xlink:href="#aS"/><use transform="matrix(0.06172839506172839,0,0,0.06172839506172839,14.814814814814813,0)" xlink:href="#bX"/><use transform="matrix(0.06172839506172839,0,0,0.06172839506172839,27.160493827160494,0)" xlink:href="#aS"/><use transform="matrix(0.06172839506172839,0,0,0.06172839506172839,41.9753086419753,0)" xlink:href="#aT"/><use transform="matrix(0.06172839506172839,0,0,0.06172839506172839,57.962962962962955,0)" xlink:href="#bA"/></g><path fill="#e81313" d="M238-95c0 69-44 99-111 99C63 4 22-25 22-93v-155h51v151c-1 38 19 59 55 60 90 1 49-130 58-211h52v153" id="cj"/><path fill="#e81313" d="M135-194c87-1 58 113 63 194h-50c-7-57 23-157-34-157-59 0-34 97-39 157H25l-1-190h47c2 12-1 28 3 38 12-26 28-41 61-42" id="ck"/><path fill="#e81313" d="M133-34C117-15 103 5 69 4 32 3 11-16 11-54c-1-60 55-63 116-61 1-26-3-47-28-47-18 1-26 9-28 27l-52-2c7-38 36-58 82-57s74 22 75 68l1 82c-1 14 12 18 25 15v27c-30 8-71 5-69-32zm-48 3c29 0 43-24 42-57-32 0-66-3-65 30 0 17 8 27 23 27" id="cl"/><path fill="#e81313" d="M135-194c52 0 70 43 70 98 0 56-19 99-73 100-30 1-46-15-58-35L72 0H24l1-261h50v104c11-23 29-37 60-37zM114-30c31 0 40-27 40-66 0-37-7-63-39-63s-41 28-41 65c0 36 8 64 40 64" id="cm"/><path fill="#e81313" d="M25 0v-261h50V0H25" id="cn"/><path fill="#e81313" d="M185-48c-13 30-37 53-82 52C43 2 14-33 14-96s30-98 90-98c62 0 83 45 84 108H66c0 31 8 55 39 56 18 0 30-7 34-22zm-45-69c5-46-57-63-70-21-2 6-4 13-4 21h74" id="co"/><g id="aE"><use transform="matrix(0.04938271604938272,0,0,0.04938271604938272,0,0)" xlink:href="#cj"/><use transform="matrix(0.04938271604938272,0,0,0.04938271604938272,12.790123456790125,0)" xlink:href="#ck"/><use transform="matrix(0.04938271604938272,0,0,0.04938271604938272,23.60493827160494,0)" xlink:href="#cl"/><use transform="matrix(0.04938271604938272,0,0,0.04938271604938272,33.48148148148148,0)" xlink:href="#cm"/><use transform="matrix(0.04938271604938272,0,0,0.04938271604938272,44.2962962962963,0)" xlink:href="#cn"/><use transform="matrix(0.04938271604938272,0,0,0.04938271604938272,49.23456790123457,0)" xlink:href="#co"/></g><path fill="#e81313" d="M115-3C79 11 28 4 28-45v-112H4v-33h27l15-45h31v45h36v33H77v99c-1 23 16 31 38 25v30" id="cp"/><path fill="#e81313" d="M110-194c64 0 96 36 96 99 0 64-35 99-97 99-61 0-95-36-95-99 0-62 34-99 96-99zm-1 164c35 0 45-28 45-65 0-40-10-65-43-65-34 0-45 26-45 65 0 36 10 65 43 65" id="cq"/><g id="aF"><use transform="matrix(0.04938271604938272,0,0,0.04938271604938272,0,0)" xlink:href="#cp"/><use transform="matrix(0.04938271604938272,0,0,0.04938271604938272,5.8765432098765435,0)" xlink:href="#cq"/></g><path fill="#e81313" d="M24 0v-248h52v208h133V0H24" id="cr"/><path fill="#e81313" d="M67-125c0 54 23 88 75 88 28 0 53-7 68-21v-34h-60v-39h108v91C232-14 192 4 140 4 58 4 20-42 15-125 8-236 126-280 215-234c19 10 29 26 37 47l-47 15c-11-23-29-39-63-39-53 1-75 33-75 86" id="cs"/><g id="aG"><use transform="matrix(0.04938271604938272,0,0,0.04938271604938272,0,0)" xlink:href="#cr"/><use transform="matrix(0.04938271604938272,0,0,0.04938271604938272,10.814814814814815,0)" xlink:href="#bP"/><use transform="matrix(0.04938271604938272,0,0,0.04938271604938272,24.641975308641975,0)" xlink:href="#cs"/></g><g id="aH"><use transform="matrix(0.04938271604938272,0,0,0.04938271604938272,0,0)" xlink:href="#bV"/><use transform="matrix(0.04938271604938272,0,0,0.04938271604938272,12.790123456790125,0)" xlink:href="#cl"/><use transform="matrix(0.04938271604938272,0,0,0.04938271604938272,22.66666666666667,0)" xlink:href="#cp"/><use transform="matrix(0.04938271604938272,0,0,0.04938271604938272,28.54320987654322,0)" xlink:href="#cl"/></g><g id="aI"><use transform="matrix(0.055555555555555546,0,0,0.055555555555555546,0,0)" xlink:href="#bq"/><use transform="matrix(0.055555555555555546,0,0,0.055555555555555546,5.5555555555555545,0)" xlink:href="#br"/><use transform="matrix(0.055555555555555546,0,0,0.055555555555555546,19.94444444444444,0)" xlink:href="#bW"/><use transform="matrix(0.055555555555555546,0,0,0.055555555555555546,33.27777777777777,0)" xlink:href="#aT"/><use transform="matrix(0.055555555555555546,0,0,0.055555555555555546,47.27777777777777,0)" xlink:href="#aU"/><use transform="matrix(0.055555555555555546,0,0,0.055555555555555546,59.444444444444436,0)" xlink:href="#bq"/><use transform="matrix(0.055555555555555546,0,0,0.055555555555555546,64.99999999999999,0)" xlink:href="#aS"/></g><g id="aJ"><use transform="matrix(0.055555555555555546,0,0,0.055555555555555546,0,0)" xlink:href="#bA"/><use transform="matrix(0.055555555555555546,0,0,0.055555555555555546,16.611111111111107,0)" xlink:href="#bB"/><use transform="matrix(0.055555555555555546,0,0,0.055555555555555546,29.944444444444432,0)" xlink:href="#aR"/><use transform="matrix(0.055555555555555546,0,0,0.055555555555555546,44.33333333333332,0)" xlink:href="#bz"/><use transform="matrix(0.055555555555555546,0,0,0.055555555555555546,55.44444444444443,0)" xlink:href="#bv"/><use transform="matrix(0.055555555555555546,0,0,0.055555555555555546,66.55555555555554,0)" xlink:href="#bw"/><use transform="matrix(0.055555555555555546,0,0,0.055555555555555546,77.66666666666666,0)" xlink:href="#bv"/></g><g id="aK"><use transform="matrix(0.024691358024691343,0,0,0.024691358024691343,0,0)" xlink:href="#bG"/><use transform="matrix(0.024691358024691343,0,0,0.024691358024691343,2.93827160493827,0)" xlink:href="#aY"/><use transform="matrix(0.024691358024691343,0,0,0.024691358024691343,4.888888888888886,0)" xlink:href="#aZ"/><use transform="matrix(0.024691358024691343,0,0,0.024691358024691343,9.827160493827154,0)" xlink:href="#aO"/><use transform="matrix(0.024691358024691343,0,0,0.024691358024691343,12.296296296296289,0)" xlink:href="#aW"/><use transform="matrix(0.024691358024691343,0,0,0.024691358024691343,17.234567901234556,0)" xlink:href="#aQ"/><use transform="matrix(0.024691358024691343,0,0,0.024691358024691343,20.172839506172824,0)" xlink:href="#aQ"/><use transform="matrix(0.024691358024691343,0,0,0.024691358024691343,23.111111111111093,0)" xlink:href="#bg"/><use transform="matrix(0.024691358024691343,0,0,0.024691358024691343,28.049382716049358,0)" xlink:href="#bZ"/><use transform="matrix(0.024691358024691343,0,0,0.024691358024691343,32.98765432098763,0)" xlink:href="#aO"/><use transform="matrix(0.024691358024691343,0,0,0.024691358024691343,35.45679012345676,0)" xlink:href="#bI"/></g><path fill="#e81313" d="M24 0v-248h52V0H24" id="ct"/><path fill="#e81313" d="M135-150c-39-12-60 13-60 57V0H25l-1-190h47c2 13-1 29 3 40 6-28 27-53 61-41v41" id="cu"/><path fill="#e81313" d="M25-224v-37h50v37H25zM25 0v-190h50V0H25" id="cv"/><g id="aL"><use transform="matrix(0.04938271604938272,0,0,0.04938271604938272,0,0)" xlink:href="#ct"/><use transform="matrix(0.04938271604938272,0,0,0.04938271604938272,4.938271604938272,0)" xlink:href="#ck"/><use transform="matrix(0.04938271604938272,0,0,0.04938271604938272,15.753086419753087,0)" xlink:href="#co"/><use transform="matrix(0.04938271604938272,0,0,0.04938271604938272,25.629629629629633,0)" xlink:href="#cu"/><use transform="matrix(0.04938271604938272,0,0,0.04938271604938272,32.543209876543216,0)" xlink:href="#cp"/><use transform="matrix(0.04938271604938272,0,0,0.04938271604938272,38.41975308641976,0)" xlink:href="#cv"/><use transform="matrix(0.04938271604938272,0,0,0.04938271604938272,43.35802469135803,0)" xlink:href="#cl"/></g><path fill="#e81313" d="M195-6C206 82 75 100 31 46c-4-6-6-13-8-21l49-6c3 16 16 24 34 25 40 0 42-37 40-79-11 22-30 35-61 35-53 0-70-43-70-97 0-56 18-96 73-97 30 0 46 14 59 34l2-30h47zm-90-29c32 0 41-27 41-63 0-35-9-62-40-62-32 0-39 29-40 63 0 36 9 62 39 62" id="cw"/><g id="aM"><use transform="matrix(0.04938271604938272,0,0,0.04938271604938272,0,0)" xlink:href="#bQ"/><use transform="matrix(0.04938271604938272,0,0,0.04938271604938272,9.82716049382716,0)" xlink:href="#cu"/><use transform="matrix(0.04938271604938272,0,0,0.04938271604938272,16.74074074074074,0)" xlink:href="#cv"/><use transform="matrix(0.04938271604938272,0,0,0.04938271604938272,21.679012345679013,0)" xlink:href="#cw"/><use transform="matrix(0.04938271604938272,0,0,0.04938271604938272,32.49382716049383,0)" xlink:href="#cw"/><use transform="matrix(0.04938271604938272,0,0,0.04938271604938272,43.308641975308646,0)" xlink:href="#co"/><use transform="matrix(0.04938271604938272,0,0,0.04938271604938272,53.18518518518519,0)" xlink:href="#cu"/></g></defs></g></svg>